G04 #@! TF.FileFunction,Soldermask,Top*
%FSLAX46Y46*%
G04 Gerber Fmt 4.6, Leading zero omitted, Abs format (unit mm)*
G04 Created by KiCad (PCBNEW 4.0.7) date 08/08/18 22:49:19*
%MOMM*%
%LPD*%
G01*
G04 APERTURE LIST*
%ADD10C,0.100000*%
%ADD11R,1.900000X1.650000*%
%ADD12R,1.650000X1.900000*%
%ADD13R,1.700000X1.900000*%
%ADD14R,1.740000X0.440000*%
%ADD15R,1.900000X1.700000*%
%ADD16R,2.000000X0.950000*%
%ADD17R,0.950000X2.000000*%
%ADD18R,1.200000X1.300000*%
%ADD19R,1.100000X0.700000*%
%ADD20R,0.700000X1.100000*%
%ADD21R,2.100000X2.100000*%
%ADD22O,2.100000X2.100000*%
%ADD23R,1.350000X2.150000*%
%ADD24R,3.600000X2.150000*%
%ADD25R,1.250000X0.750000*%
%ADD26R,0.750000X1.150000*%
%ADD27R,0.750000X1.250000*%
G04 APERTURE END LIST*
D10*
D11*
X253218000Y-83058000D03*
X250718000Y-83058000D03*
D12*
X254762000Y-78506000D03*
X254762000Y-81006000D03*
X238760000Y-78760000D03*
X238760000Y-81260000D03*
D11*
X240812000Y-76962000D03*
X243312000Y-76962000D03*
X252710000Y-76835000D03*
X250210000Y-76835000D03*
D13*
X234950000Y-80725000D03*
X234950000Y-78025000D03*
X231775000Y-80725000D03*
X231775000Y-78025000D03*
D14*
X245370000Y-63915000D03*
X245370000Y-63265000D03*
X245370000Y-62615000D03*
X245370000Y-61965000D03*
X245370000Y-61315000D03*
X245370000Y-60665000D03*
X245370000Y-60015000D03*
X245370000Y-59365000D03*
X245370000Y-58715000D03*
X245370000Y-58065000D03*
X245370000Y-57415000D03*
X245370000Y-56765000D03*
X245370000Y-56115000D03*
X245370000Y-55465000D03*
X239770000Y-55465000D03*
X239770000Y-56115000D03*
X239770000Y-56765000D03*
X239770000Y-57415000D03*
X239770000Y-58065000D03*
X239770000Y-58715000D03*
X239770000Y-59365000D03*
X239770000Y-60015000D03*
X239770000Y-60665000D03*
X239770000Y-61315000D03*
X239770000Y-61965000D03*
X239770000Y-62615000D03*
X239770000Y-63265000D03*
X239770000Y-63915000D03*
D13*
X234950000Y-59008000D03*
X234950000Y-56308000D03*
X232664000Y-59008000D03*
X232664000Y-56308000D03*
X234950000Y-83613000D03*
X234950000Y-86313000D03*
X231838500Y-83613000D03*
X231838500Y-86313000D03*
D15*
X227504000Y-58166000D03*
X230204000Y-58166000D03*
D16*
X225620000Y-65780000D03*
X225620000Y-66580000D03*
X225620000Y-67380000D03*
X225620000Y-68180000D03*
X225620000Y-68980000D03*
X225620000Y-69780000D03*
X225620000Y-70580000D03*
X225620000Y-71380000D03*
D17*
X227070000Y-72830000D03*
X227870000Y-72830000D03*
X228670000Y-72830000D03*
X229470000Y-72830000D03*
X230270000Y-72830000D03*
X231070000Y-72830000D03*
X231870000Y-72830000D03*
X232670000Y-72830000D03*
D16*
X234120000Y-71380000D03*
X234120000Y-70580000D03*
X234120000Y-69780000D03*
X234120000Y-68980000D03*
X234120000Y-68180000D03*
X234120000Y-67380000D03*
X234120000Y-66580000D03*
X234120000Y-65780000D03*
D17*
X232670000Y-64330000D03*
X231870000Y-64330000D03*
X231070000Y-64330000D03*
X230270000Y-64330000D03*
X229470000Y-64330000D03*
X228670000Y-64330000D03*
X227870000Y-64330000D03*
X227070000Y-64330000D03*
D18*
X249240000Y-69580000D03*
X251140000Y-69580000D03*
X250190000Y-67580000D03*
X244795000Y-69580000D03*
X246695000Y-69580000D03*
X245745000Y-67580000D03*
D12*
X237490000Y-68092000D03*
X237490000Y-70592000D03*
X248158000Y-63607000D03*
X248158000Y-61107000D03*
X236982000Y-63480000D03*
X236982000Y-60980000D03*
D19*
X250185000Y-79010000D03*
X250185000Y-79510000D03*
X250185000Y-80010000D03*
X250185000Y-80510000D03*
X250185000Y-81010000D03*
D20*
X250960000Y-81285000D03*
X251460000Y-81285000D03*
X251960000Y-81285000D03*
D19*
X252735000Y-81010000D03*
X252735000Y-80510000D03*
X252735000Y-80010000D03*
X252735000Y-79510000D03*
X252735000Y-79010000D03*
D20*
X251960000Y-78735000D03*
X251460000Y-78735000D03*
X250960000Y-78735000D03*
D21*
X215773000Y-86360000D03*
D22*
X215773000Y-83820000D03*
X215773000Y-81280000D03*
D11*
X227540500Y-60769500D03*
X230040500Y-60769500D03*
D21*
X215773000Y-68580000D03*
D22*
X215773000Y-66040000D03*
X215773000Y-63500000D03*
D21*
X215900000Y-77470000D03*
D22*
X213360000Y-77470000D03*
X215900000Y-74930000D03*
X213360000Y-74930000D03*
X215900000Y-72390000D03*
X213360000Y-72390000D03*
D21*
X260350000Y-62865000D03*
D22*
X260350000Y-65405000D03*
X260350000Y-67945000D03*
D21*
X260350000Y-53975000D03*
D22*
X260350000Y-56515000D03*
X260350000Y-59055000D03*
D21*
X260350000Y-71755000D03*
D22*
X260350000Y-74295000D03*
X260350000Y-76835000D03*
D21*
X260350000Y-80645000D03*
D22*
X260350000Y-83185000D03*
X260350000Y-85725000D03*
D23*
X249823000Y-85877000D03*
X247523000Y-85877000D03*
X245223000Y-85877000D03*
D24*
X247523000Y-92177000D03*
D13*
X256603500Y-58784500D03*
X256603500Y-61484500D03*
X253365000Y-58848000D03*
X253365000Y-61548000D03*
D15*
X248301500Y-82105500D03*
X245601500Y-82105500D03*
D13*
X242824000Y-85010000D03*
X242824000Y-87710000D03*
D15*
X253412000Y-85344000D03*
X256112000Y-85344000D03*
D13*
X239776000Y-87710000D03*
X239776000Y-85010000D03*
D21*
X215646000Y-59055000D03*
D22*
X215646000Y-56515000D03*
X215646000Y-53975000D03*
D21*
X215900000Y-95250000D03*
D22*
X215900000Y-92710000D03*
X215900000Y-90170000D03*
D25*
X240660000Y-80010000D03*
X240660000Y-79510000D03*
X240660000Y-79010000D03*
X240660000Y-80510000D03*
X240660000Y-81010000D03*
D26*
X241935000Y-78735000D03*
X241435000Y-78735000D03*
X242435000Y-78735000D03*
D25*
X243210000Y-79010000D03*
X243210000Y-79510000D03*
X243210000Y-80010000D03*
X243210000Y-80510000D03*
X243210000Y-81010000D03*
D27*
X241435000Y-81285000D03*
X241935000Y-81285000D03*
X242435000Y-81285000D03*
M02*
