G04 #@! TF.FileFunction,Copper,L2,Bot,Signal*
%FSLAX46Y46*%
G04 Gerber Fmt 4.6, Leading zero omitted, Abs format (unit mm)*
G04 Created by KiCad (PCBNEW 4.0.7) date 08/08/18 22:49:19*
%MOMM*%
%LPD*%
G01*
G04 APERTURE LIST*
%ADD10C,0.100000*%
%ADD11C,0.300000*%
%ADD12R,1.700000X1.700000*%
%ADD13O,1.700000X1.700000*%
%ADD14C,0.609600*%
%ADD15C,0.254000*%
G04 APERTURE END LIST*
D10*
D11*
X260957286Y-97163000D02*
X260885857Y-97234428D01*
X260814429Y-97163000D01*
X260885857Y-97091571D01*
X260957286Y-97163000D01*
X260814429Y-97163000D01*
X261743000Y-97163000D02*
X261671571Y-97234428D01*
X261600143Y-97163000D01*
X261671571Y-97091571D01*
X261743000Y-97163000D01*
X261600143Y-97163000D01*
X260243000Y-97734429D02*
X260314429Y-97805857D01*
X260528714Y-97948714D01*
X260671571Y-98020143D01*
X260885857Y-98091572D01*
X261243000Y-98163000D01*
X261528714Y-98163000D01*
X261885857Y-98091572D01*
X262100143Y-98020143D01*
X262243000Y-97948714D01*
X262457286Y-97805857D01*
X262528714Y-97734429D01*
D12*
X215773000Y-86360000D03*
D13*
X215773000Y-83820000D03*
X215773000Y-81280000D03*
D12*
X215773000Y-68580000D03*
D13*
X215773000Y-66040000D03*
X215773000Y-63500000D03*
D12*
X215900000Y-77470000D03*
D13*
X213360000Y-77470000D03*
X215900000Y-74930000D03*
X213360000Y-74930000D03*
X215900000Y-72390000D03*
X213360000Y-72390000D03*
D12*
X260350000Y-62865000D03*
D13*
X260350000Y-65405000D03*
X260350000Y-67945000D03*
D12*
X260350000Y-53975000D03*
D13*
X260350000Y-56515000D03*
X260350000Y-59055000D03*
D12*
X260350000Y-71755000D03*
D13*
X260350000Y-74295000D03*
X260350000Y-76835000D03*
D12*
X260350000Y-80645000D03*
D13*
X260350000Y-83185000D03*
X260350000Y-85725000D03*
D12*
X215646000Y-59055000D03*
D13*
X215646000Y-56515000D03*
X215646000Y-53975000D03*
D12*
X215900000Y-95250000D03*
D13*
X215900000Y-92710000D03*
X215900000Y-90170000D03*
D14*
X237363000Y-59690000D03*
X225552000Y-60198000D03*
X251206000Y-86614000D03*
X256286000Y-81026000D03*
X254762000Y-83058000D03*
X241935000Y-75565000D03*
X248285000Y-59055000D03*
X231775000Y-87630000D03*
X234950000Y-87630000D03*
X219710000Y-57785000D03*
X219710000Y-64770000D03*
X219710000Y-84455000D03*
X249936000Y-88392000D03*
X251079000Y-75057000D03*
X227076000Y-68834000D03*
X244475000Y-80645000D03*
X244475000Y-79375000D03*
X213360000Y-70485000D03*
X221615000Y-66040000D03*
X232410000Y-69215000D03*
X247015000Y-55245000D03*
X238760000Y-83185000D03*
X222250000Y-81280000D03*
X232410000Y-75565000D03*
X215265000Y-79375000D03*
X229616000Y-80264000D03*
X226822000Y-82296000D03*
X223012000Y-82296000D03*
X234315000Y-74930000D03*
X223520000Y-74295000D03*
X229235000Y-68580000D03*
X243840000Y-61595000D03*
X247015000Y-57785000D03*
X254635000Y-54610000D03*
X241935000Y-56515000D03*
X255905000Y-65405000D03*
X255905000Y-67945000D03*
X241935000Y-60325000D03*
X241935000Y-61595000D03*
X231775000Y-74930000D03*
X231775000Y-62230000D03*
X238125000Y-62230000D03*
X234315000Y-63500000D03*
X240030000Y-66040000D03*
X241300000Y-64135000D03*
X231775000Y-70485000D03*
X220218000Y-77724000D03*
X225552000Y-76708000D03*
X229870000Y-71120000D03*
X230632000Y-68326000D03*
X227838000Y-67564000D03*
X220726000Y-61722000D03*
X230886000Y-66548000D03*
X221996000Y-58674000D03*
X221996000Y-55372000D03*
X212090000Y-87122000D03*
X223774000Y-66040000D03*
X218694000Y-70612000D03*
X212598000Y-69088000D03*
X239395000Y-80010000D03*
X241681000Y-73660000D03*
X247650000Y-75565000D03*
X250190000Y-71120000D03*
X245745000Y-71120000D03*
X241300000Y-70485000D03*
X247650000Y-80010000D03*
X240665000Y-82550000D03*
X238125000Y-74295000D03*
D15*
X251079000Y-75057000D02*
X251206000Y-75184000D01*
X223520000Y-80010000D02*
X227965000Y-80010000D01*
X222250000Y-81280000D02*
X223520000Y-80010000D01*
X227965000Y-80010000D02*
X232410000Y-75565000D01*
X215265000Y-79375000D02*
X216535000Y-79375000D01*
X216535000Y-79375000D02*
X217805000Y-78105000D01*
X217805000Y-78105000D02*
X217805000Y-76835000D01*
X215900000Y-74930000D02*
X217805000Y-76835000D01*
X234315000Y-75565000D02*
X234315000Y-74930000D01*
X229616000Y-80264000D02*
X234315000Y-75565000D01*
X223012000Y-82296000D02*
X226822000Y-82296000D01*
X223520000Y-74295000D02*
X229235000Y-68580000D01*
X249555000Y-67310000D02*
X247650000Y-65405000D01*
X255905000Y-67310000D02*
X254635000Y-67310000D01*
X260350000Y-62865000D02*
X257175000Y-66040000D01*
X254635000Y-67310000D02*
X249555000Y-67310000D01*
X257175000Y-66040000D02*
X255905000Y-67310000D01*
X243840000Y-64770000D02*
X243840000Y-61595000D01*
X244475000Y-65405000D02*
X243840000Y-64770000D01*
X247650000Y-65405000D02*
X244475000Y-65405000D01*
X250190000Y-57785000D02*
X253365000Y-54610000D01*
X247015000Y-57785000D02*
X250190000Y-57785000D01*
X253365000Y-54610000D02*
X254635000Y-54610000D01*
X255905000Y-62230000D02*
X255905000Y-54610000D01*
X244475000Y-53975000D02*
X241935000Y-56515000D01*
X248285000Y-53975000D02*
X244475000Y-53975000D01*
X255270000Y-53975000D02*
X248285000Y-53975000D01*
X255905000Y-54610000D02*
X255270000Y-53975000D01*
X255905000Y-68580000D02*
X255905000Y-67945000D01*
X259080000Y-71755000D02*
X255905000Y-68580000D01*
X259080000Y-71755000D02*
X260350000Y-71755000D01*
X255905000Y-65405000D02*
X255905000Y-62230000D01*
X242570000Y-60325000D02*
X241935000Y-60325000D01*
X259080000Y-80645000D02*
X257810000Y-79375000D01*
X257810000Y-79375000D02*
X257810000Y-76835000D01*
X257810000Y-76835000D02*
X247015000Y-66040000D01*
X247015000Y-66040000D02*
X243840000Y-66040000D01*
X243840000Y-66040000D02*
X243205000Y-65405000D01*
X243205000Y-65405000D02*
X243205000Y-60960000D01*
X243205000Y-60960000D02*
X242570000Y-60325000D01*
X260350000Y-80645000D02*
X259080000Y-80645000D01*
X241935000Y-66040000D02*
X241935000Y-61595000D01*
X233680000Y-74295000D02*
X241935000Y-66040000D01*
X232410000Y-74295000D02*
X233680000Y-74295000D01*
X231775000Y-74930000D02*
X232410000Y-74295000D01*
X231775000Y-62230000D02*
X238125000Y-62230000D01*
X234315000Y-63500000D02*
X234315000Y-64135000D01*
X234950000Y-64770000D02*
X238760000Y-64770000D01*
X234315000Y-64135000D02*
X234950000Y-64770000D01*
X240030000Y-66040000D02*
X238760000Y-64770000D01*
X238760000Y-64770000D02*
X240665000Y-64770000D01*
X240665000Y-64770000D02*
X241300000Y-64135000D01*
X222885000Y-75565000D02*
X220980000Y-75565000D01*
X222885000Y-75565000D02*
X223520000Y-75565000D01*
X223520000Y-75565000D02*
X229235000Y-69850000D01*
X229235000Y-69850000D02*
X231140000Y-69850000D01*
X231140000Y-69850000D02*
X231775000Y-70485000D01*
X214630000Y-73660000D02*
X213360000Y-74930000D01*
X219075000Y-73660000D02*
X214630000Y-73660000D01*
X220980000Y-75565000D02*
X219075000Y-73660000D01*
X215900000Y-81280000D02*
X216662000Y-81280000D01*
X216662000Y-81280000D02*
X220218000Y-77724000D01*
X225552000Y-76708000D02*
X229870000Y-72390000D01*
X229870000Y-72390000D02*
X229870000Y-71120000D01*
X230632000Y-68326000D02*
X229870000Y-67564000D01*
X229870000Y-67564000D02*
X227838000Y-67564000D01*
X215900000Y-63500000D02*
X218948000Y-63500000D01*
X218948000Y-63500000D02*
X220726000Y-61722000D01*
X215900000Y-53975000D02*
X220599000Y-53975000D01*
X227838000Y-66548000D02*
X230886000Y-66548000D01*
X223266000Y-61976000D02*
X227838000Y-66548000D01*
X223266000Y-59944000D02*
X223266000Y-61976000D01*
X221996000Y-58674000D02*
X223266000Y-59944000D01*
X220599000Y-53975000D02*
X221996000Y-55372000D01*
X211836000Y-86868000D02*
X212090000Y-87122000D01*
X211836000Y-69850000D02*
X211836000Y-86868000D01*
X212598000Y-69088000D02*
X211836000Y-69850000D01*
X223266000Y-66040000D02*
X223774000Y-66040000D01*
X218694000Y-70612000D02*
X223266000Y-66040000D01*
X239395000Y-80010000D02*
X240284000Y-79121000D01*
X240284000Y-75057000D02*
X241681000Y-73660000D01*
X240284000Y-79121000D02*
X240284000Y-75057000D01*
X247650000Y-73660000D02*
X247650000Y-75565000D01*
X250190000Y-71120000D02*
X247650000Y-73660000D01*
X245745000Y-71120000D02*
X244475000Y-72390000D01*
X246380000Y-76200000D02*
X246380000Y-74295000D01*
X242570000Y-70485000D02*
X241300000Y-70485000D01*
X243205000Y-71120000D02*
X242570000Y-70485000D01*
X247650000Y-80010000D02*
X246380000Y-78740000D01*
X246380000Y-78740000D02*
X246380000Y-76200000D01*
X246380000Y-74295000D02*
X244475000Y-72390000D01*
X244475000Y-72390000D02*
X243205000Y-71120000D01*
X240665000Y-82550000D02*
X239395000Y-82550000D01*
X238125000Y-81280000D02*
X238125000Y-74295000D01*
X239395000Y-82550000D02*
X238125000Y-81280000D01*
G36*
X263271000Y-98425000D02*
X263074000Y-98425000D01*
X263074000Y-96424857D01*
X259762000Y-96424857D01*
X259762000Y-98425000D01*
X209931000Y-98425000D01*
X209931000Y-95472250D01*
X214669000Y-95472250D01*
X214669000Y-96175785D01*
X214727004Y-96315819D01*
X214834180Y-96422996D01*
X214974214Y-96481000D01*
X215677750Y-96481000D01*
X215773000Y-96385750D01*
X215773000Y-95377000D01*
X216027000Y-95377000D01*
X216027000Y-96385750D01*
X216122250Y-96481000D01*
X216825786Y-96481000D01*
X216965820Y-96422996D01*
X217072996Y-96315819D01*
X217131000Y-96175785D01*
X217131000Y-95472250D01*
X217035750Y-95377000D01*
X216027000Y-95377000D01*
X215773000Y-95377000D01*
X214764250Y-95377000D01*
X214669000Y-95472250D01*
X209931000Y-95472250D01*
X209931000Y-94324215D01*
X214669000Y-94324215D01*
X214669000Y-95027750D01*
X214764250Y-95123000D01*
X215773000Y-95123000D01*
X215773000Y-94114250D01*
X216027000Y-94114250D01*
X216027000Y-95123000D01*
X217035750Y-95123000D01*
X217131000Y-95027750D01*
X217131000Y-94324215D01*
X217072996Y-94184181D01*
X216965820Y-94077004D01*
X216825786Y-94019000D01*
X216122250Y-94019000D01*
X216027000Y-94114250D01*
X215773000Y-94114250D01*
X215677750Y-94019000D01*
X214974214Y-94019000D01*
X214834180Y-94077004D01*
X214727004Y-94184181D01*
X214669000Y-94324215D01*
X209931000Y-94324215D01*
X209931000Y-92710000D01*
X214644883Y-92710000D01*
X214738587Y-93181083D01*
X215005435Y-93580448D01*
X215404800Y-93847296D01*
X215875883Y-93941000D01*
X215924117Y-93941000D01*
X216395200Y-93847296D01*
X216794565Y-93580448D01*
X217061413Y-93181083D01*
X217155117Y-92710000D01*
X217061413Y-92238917D01*
X216794565Y-91839552D01*
X216395200Y-91572704D01*
X215924117Y-91479000D01*
X215875883Y-91479000D01*
X215404800Y-91572704D01*
X215005435Y-91839552D01*
X214738587Y-92238917D01*
X214644883Y-92710000D01*
X209931000Y-92710000D01*
X209931000Y-90170000D01*
X214644883Y-90170000D01*
X214738587Y-90641083D01*
X215005435Y-91040448D01*
X215404800Y-91307296D01*
X215875883Y-91401000D01*
X215924117Y-91401000D01*
X216395200Y-91307296D01*
X216794565Y-91040448D01*
X217061413Y-90641083D01*
X217155117Y-90170000D01*
X217061413Y-89698917D01*
X216794565Y-89299552D01*
X216395200Y-89032704D01*
X215924117Y-88939000D01*
X215875883Y-88939000D01*
X215404800Y-89032704D01*
X215005435Y-89299552D01*
X214738587Y-89698917D01*
X214644883Y-90170000D01*
X209931000Y-90170000D01*
X209931000Y-69850000D01*
X211328000Y-69850000D01*
X211328000Y-86868000D01*
X211366669Y-87062403D01*
X211404202Y-87118576D01*
X211404081Y-87257816D01*
X211508268Y-87509967D01*
X211701018Y-87703054D01*
X211952987Y-87807681D01*
X212225816Y-87807919D01*
X212477967Y-87703732D01*
X212671054Y-87510982D01*
X212775681Y-87259013D01*
X212775919Y-86986184D01*
X212671732Y-86734033D01*
X212520214Y-86582250D01*
X214542000Y-86582250D01*
X214542000Y-87285785D01*
X214600004Y-87425819D01*
X214707180Y-87532996D01*
X214847214Y-87591000D01*
X215550750Y-87591000D01*
X215646000Y-87495750D01*
X215646000Y-86487000D01*
X215900000Y-86487000D01*
X215900000Y-87495750D01*
X215995250Y-87591000D01*
X216698786Y-87591000D01*
X216838820Y-87532996D01*
X216945996Y-87425819D01*
X217004000Y-87285785D01*
X217004000Y-86582250D01*
X216908750Y-86487000D01*
X215900000Y-86487000D01*
X215646000Y-86487000D01*
X214637250Y-86487000D01*
X214542000Y-86582250D01*
X212520214Y-86582250D01*
X212478982Y-86540946D01*
X212344000Y-86484896D01*
X212344000Y-85434215D01*
X214542000Y-85434215D01*
X214542000Y-86137750D01*
X214637250Y-86233000D01*
X215646000Y-86233000D01*
X215646000Y-85224250D01*
X215900000Y-85224250D01*
X215900000Y-86233000D01*
X216908750Y-86233000D01*
X217004000Y-86137750D01*
X217004000Y-86041980D01*
X259160511Y-86041980D01*
X259284755Y-86341964D01*
X259601944Y-86702652D01*
X260033018Y-86914501D01*
X260223000Y-86854193D01*
X260223000Y-85852000D01*
X260477000Y-85852000D01*
X260477000Y-86854193D01*
X260666982Y-86914501D01*
X261098056Y-86702652D01*
X261415245Y-86341964D01*
X261539489Y-86041980D01*
X261478627Y-85852000D01*
X260477000Y-85852000D01*
X260223000Y-85852000D01*
X259221373Y-85852000D01*
X259160511Y-86041980D01*
X217004000Y-86041980D01*
X217004000Y-85434215D01*
X216993150Y-85408020D01*
X259160511Y-85408020D01*
X259221373Y-85598000D01*
X260223000Y-85598000D01*
X260223000Y-84595807D01*
X260477000Y-84595807D01*
X260477000Y-85598000D01*
X261478627Y-85598000D01*
X261539489Y-85408020D01*
X261415245Y-85108036D01*
X261098056Y-84747348D01*
X260666982Y-84535499D01*
X260477000Y-84595807D01*
X260223000Y-84595807D01*
X260033018Y-84535499D01*
X259601944Y-84747348D01*
X259284755Y-85108036D01*
X259160511Y-85408020D01*
X216993150Y-85408020D01*
X216945996Y-85294181D01*
X216838820Y-85187004D01*
X216698786Y-85129000D01*
X215995250Y-85129000D01*
X215900000Y-85224250D01*
X215646000Y-85224250D01*
X215550750Y-85129000D01*
X214847214Y-85129000D01*
X214707180Y-85187004D01*
X214600004Y-85294181D01*
X214542000Y-85434215D01*
X212344000Y-85434215D01*
X212344000Y-83820000D01*
X214517883Y-83820000D01*
X214611587Y-84291083D01*
X214878435Y-84690448D01*
X215277800Y-84957296D01*
X215748883Y-85051000D01*
X215797117Y-85051000D01*
X216268200Y-84957296D01*
X216667565Y-84690448D01*
X216934413Y-84291083D01*
X217028117Y-83820000D01*
X216934413Y-83348917D01*
X216667565Y-82949552D01*
X216268200Y-82682704D01*
X215797117Y-82589000D01*
X215748883Y-82589000D01*
X215277800Y-82682704D01*
X214878435Y-82949552D01*
X214611587Y-83348917D01*
X214517883Y-83820000D01*
X212344000Y-83820000D01*
X212344000Y-81280000D01*
X214517883Y-81280000D01*
X214611587Y-81751083D01*
X214878435Y-82150448D01*
X215277800Y-82417296D01*
X215748883Y-82511000D01*
X215797117Y-82511000D01*
X216268200Y-82417296D01*
X216667565Y-82150448D01*
X216934413Y-81751083D01*
X216946772Y-81688948D01*
X217021210Y-81639210D01*
X217244604Y-81415816D01*
X221564081Y-81415816D01*
X221668268Y-81667967D01*
X221861018Y-81861054D01*
X222112987Y-81965681D01*
X222385816Y-81965919D01*
X222410769Y-81955608D01*
X222326319Y-82158987D01*
X222326081Y-82431816D01*
X222430268Y-82683967D01*
X222623018Y-82877054D01*
X222874987Y-82981681D01*
X223147816Y-82981919D01*
X223399967Y-82877732D01*
X223473828Y-82804000D01*
X226360092Y-82804000D01*
X226433018Y-82877054D01*
X226684987Y-82981681D01*
X226957816Y-82981919D01*
X227209967Y-82877732D01*
X227403054Y-82684982D01*
X227507681Y-82433013D01*
X227507919Y-82160184D01*
X227403732Y-81908033D01*
X227210982Y-81714946D01*
X226959013Y-81610319D01*
X226686184Y-81610081D01*
X226434033Y-81714268D01*
X226360172Y-81788000D01*
X223473908Y-81788000D01*
X223400982Y-81714946D01*
X223149013Y-81610319D01*
X222876184Y-81610081D01*
X222851231Y-81620392D01*
X222935681Y-81417013D01*
X222935772Y-81312648D01*
X223730420Y-80518000D01*
X227965000Y-80518000D01*
X228159403Y-80479331D01*
X228324210Y-80369210D01*
X232442591Y-76250829D01*
X232545816Y-76250919D01*
X232797967Y-76146732D01*
X232991054Y-75953982D01*
X233095681Y-75702013D01*
X233095919Y-75429184D01*
X232991732Y-75177033D01*
X232798982Y-74983946D01*
X232547013Y-74879319D01*
X232544104Y-74879316D01*
X232620421Y-74803000D01*
X233629310Y-74803000D01*
X233629081Y-75065816D01*
X233733268Y-75317967D01*
X233788392Y-75373187D01*
X229583409Y-79578171D01*
X229480184Y-79578081D01*
X229228033Y-79682268D01*
X229034946Y-79875018D01*
X228930319Y-80126987D01*
X228930081Y-80399816D01*
X229034268Y-80651967D01*
X229227018Y-80845054D01*
X229478987Y-80949681D01*
X229751816Y-80949919D01*
X230003967Y-80845732D01*
X230197054Y-80652982D01*
X230301681Y-80401013D01*
X230301772Y-80296648D01*
X234674211Y-75924210D01*
X234784331Y-75759403D01*
X234823000Y-75565000D01*
X234823000Y-75391908D01*
X234896054Y-75318982D01*
X235000681Y-75067013D01*
X235000919Y-74794184D01*
X234896732Y-74542033D01*
X234785710Y-74430816D01*
X237439081Y-74430816D01*
X237543268Y-74682967D01*
X237617000Y-74756828D01*
X237617000Y-81280000D01*
X237655669Y-81474403D01*
X237765790Y-81639210D01*
X239035790Y-82909210D01*
X239200596Y-83019331D01*
X239232850Y-83025746D01*
X239395000Y-83058000D01*
X240203092Y-83058000D01*
X240276018Y-83131054D01*
X240527987Y-83235681D01*
X240800816Y-83235919D01*
X240924049Y-83185000D01*
X259094883Y-83185000D01*
X259188587Y-83656083D01*
X259455435Y-84055448D01*
X259854800Y-84322296D01*
X260325883Y-84416000D01*
X260374117Y-84416000D01*
X260845200Y-84322296D01*
X261244565Y-84055448D01*
X261511413Y-83656083D01*
X261605117Y-83185000D01*
X261511413Y-82713917D01*
X261244565Y-82314552D01*
X260845200Y-82047704D01*
X260374117Y-81954000D01*
X260325883Y-81954000D01*
X259854800Y-82047704D01*
X259455435Y-82314552D01*
X259188587Y-82713917D01*
X259094883Y-83185000D01*
X240924049Y-83185000D01*
X241052967Y-83131732D01*
X241246054Y-82938982D01*
X241350681Y-82687013D01*
X241350919Y-82414184D01*
X241246732Y-82162033D01*
X241053982Y-81968946D01*
X240802013Y-81864319D01*
X240529184Y-81864081D01*
X240277033Y-81968268D01*
X240203172Y-82042000D01*
X239605420Y-82042000D01*
X238633000Y-81069580D01*
X238633000Y-80145816D01*
X238709081Y-80145816D01*
X238813268Y-80397967D01*
X239006018Y-80591054D01*
X239257987Y-80695681D01*
X239530816Y-80695919D01*
X239782967Y-80591732D01*
X239976054Y-80398982D01*
X240080681Y-80147013D01*
X240080772Y-80042648D01*
X240643210Y-79480210D01*
X240753331Y-79315403D01*
X240792000Y-79121000D01*
X240792000Y-75267420D01*
X241713591Y-74345829D01*
X241816816Y-74345919D01*
X242068967Y-74241732D01*
X242262054Y-74048982D01*
X242366681Y-73797013D01*
X242366919Y-73524184D01*
X242262732Y-73272033D01*
X242069982Y-73078946D01*
X241818013Y-72974319D01*
X241545184Y-72974081D01*
X241293033Y-73078268D01*
X241099946Y-73271018D01*
X240995319Y-73522987D01*
X240995228Y-73627352D01*
X239924790Y-74697790D01*
X239814669Y-74862597D01*
X239776000Y-75057000D01*
X239776000Y-78910580D01*
X239362409Y-79324171D01*
X239259184Y-79324081D01*
X239007033Y-79428268D01*
X238813946Y-79621018D01*
X238709319Y-79872987D01*
X238709081Y-80145816D01*
X238633000Y-80145816D01*
X238633000Y-74756908D01*
X238706054Y-74683982D01*
X238810681Y-74432013D01*
X238810919Y-74159184D01*
X238706732Y-73907033D01*
X238513982Y-73713946D01*
X238262013Y-73609319D01*
X237989184Y-73609081D01*
X237737033Y-73713268D01*
X237543946Y-73906018D01*
X237439319Y-74157987D01*
X237439081Y-74430816D01*
X234785710Y-74430816D01*
X234703982Y-74348946D01*
X234452013Y-74244319D01*
X234449104Y-74244316D01*
X238072604Y-70620816D01*
X240614081Y-70620816D01*
X240718268Y-70872967D01*
X240911018Y-71066054D01*
X241162987Y-71170681D01*
X241435816Y-71170919D01*
X241687967Y-71066732D01*
X241761828Y-70993000D01*
X242359580Y-70993000D01*
X242845790Y-71479211D01*
X242845793Y-71479213D01*
X245872000Y-74505420D01*
X245872000Y-78740000D01*
X245910669Y-78934403D01*
X246020790Y-79099210D01*
X246964171Y-80042591D01*
X246964081Y-80145816D01*
X247068268Y-80397967D01*
X247261018Y-80591054D01*
X247512987Y-80695681D01*
X247785816Y-80695919D01*
X248037967Y-80591732D01*
X248231054Y-80398982D01*
X248335681Y-80147013D01*
X248335919Y-79874184D01*
X248231732Y-79622033D01*
X248038982Y-79428946D01*
X247787013Y-79324319D01*
X247682648Y-79324228D01*
X246888000Y-78529580D01*
X246888000Y-75700816D01*
X246964081Y-75700816D01*
X247068268Y-75952967D01*
X247261018Y-76146054D01*
X247512987Y-76250681D01*
X247785816Y-76250919D01*
X248037967Y-76146732D01*
X248231054Y-75953982D01*
X248335681Y-75702013D01*
X248335919Y-75429184D01*
X248231732Y-75177033D01*
X248158000Y-75103172D01*
X248158000Y-73870420D01*
X250222592Y-71805829D01*
X250325816Y-71805919D01*
X250577967Y-71701732D01*
X250771054Y-71508982D01*
X250875681Y-71257013D01*
X250875919Y-70984184D01*
X250771732Y-70732033D01*
X250578982Y-70538946D01*
X250327013Y-70434319D01*
X250054184Y-70434081D01*
X249802033Y-70538268D01*
X249608946Y-70731018D01*
X249504319Y-70982987D01*
X249504228Y-71087351D01*
X247290790Y-73300790D01*
X247180669Y-73465597D01*
X247142000Y-73660000D01*
X247142000Y-75103092D01*
X247068946Y-75176018D01*
X246964319Y-75427987D01*
X246964081Y-75700816D01*
X246888000Y-75700816D01*
X246888000Y-74295000D01*
X246849331Y-74100597D01*
X246739210Y-73935790D01*
X245193420Y-72390000D01*
X245777591Y-71805829D01*
X245880816Y-71805919D01*
X246132967Y-71701732D01*
X246326054Y-71508982D01*
X246430681Y-71257013D01*
X246430919Y-70984184D01*
X246326732Y-70732033D01*
X246133982Y-70538946D01*
X245882013Y-70434319D01*
X245609184Y-70434081D01*
X245357033Y-70538268D01*
X245163946Y-70731018D01*
X245059319Y-70982987D01*
X245059228Y-71087352D01*
X244475000Y-71671580D01*
X243564213Y-70760793D01*
X243564211Y-70760790D01*
X242929210Y-70125790D01*
X242764403Y-70015669D01*
X242570000Y-69977000D01*
X241761908Y-69977000D01*
X241688982Y-69903946D01*
X241437013Y-69799319D01*
X241164184Y-69799081D01*
X240912033Y-69903268D01*
X240718946Y-70096018D01*
X240614319Y-70347987D01*
X240614081Y-70620816D01*
X238072604Y-70620816D01*
X242294210Y-66399210D01*
X242404331Y-66234403D01*
X242443000Y-66040000D01*
X242443000Y-62056908D01*
X242516054Y-61983982D01*
X242620681Y-61732013D01*
X242620919Y-61459184D01*
X242516732Y-61207033D01*
X242323982Y-61013946D01*
X242194058Y-60959996D01*
X242322967Y-60906732D01*
X242378188Y-60851608D01*
X242697000Y-61170421D01*
X242697000Y-65405000D01*
X242735669Y-65599403D01*
X242845790Y-65764210D01*
X243480790Y-66399211D01*
X243645597Y-66509331D01*
X243840000Y-66548000D01*
X246804580Y-66548000D01*
X257302000Y-77045421D01*
X257302000Y-79375000D01*
X257340669Y-79569403D01*
X257450790Y-79734210D01*
X258720790Y-81004210D01*
X258885596Y-81114331D01*
X258917850Y-81120746D01*
X259080000Y-81153000D01*
X259111536Y-81153000D01*
X259111536Y-81495000D01*
X259138103Y-81636190D01*
X259221546Y-81765865D01*
X259348866Y-81852859D01*
X259500000Y-81883464D01*
X261200000Y-81883464D01*
X261341190Y-81856897D01*
X261470865Y-81773454D01*
X261557859Y-81646134D01*
X261588464Y-81495000D01*
X261588464Y-79795000D01*
X261561897Y-79653810D01*
X261478454Y-79524135D01*
X261351134Y-79437141D01*
X261200000Y-79406536D01*
X259500000Y-79406536D01*
X259358810Y-79433103D01*
X259229135Y-79516546D01*
X259142141Y-79643866D01*
X259111536Y-79795000D01*
X259111536Y-79958116D01*
X258318000Y-79164580D01*
X258318000Y-77151980D01*
X259160511Y-77151980D01*
X259284755Y-77451964D01*
X259601944Y-77812652D01*
X260033018Y-78024501D01*
X260223000Y-77964193D01*
X260223000Y-76962000D01*
X260477000Y-76962000D01*
X260477000Y-77964193D01*
X260666982Y-78024501D01*
X261098056Y-77812652D01*
X261415245Y-77451964D01*
X261539489Y-77151980D01*
X261478627Y-76962000D01*
X260477000Y-76962000D01*
X260223000Y-76962000D01*
X259221373Y-76962000D01*
X259160511Y-77151980D01*
X258318000Y-77151980D01*
X258318000Y-76835000D01*
X258279331Y-76640597D01*
X258279331Y-76640596D01*
X258197428Y-76518020D01*
X259160511Y-76518020D01*
X259221373Y-76708000D01*
X260223000Y-76708000D01*
X260223000Y-75705807D01*
X260477000Y-75705807D01*
X260477000Y-76708000D01*
X261478627Y-76708000D01*
X261539489Y-76518020D01*
X261415245Y-76218036D01*
X261098056Y-75857348D01*
X260666982Y-75645499D01*
X260477000Y-75705807D01*
X260223000Y-75705807D01*
X260033018Y-75645499D01*
X259601944Y-75857348D01*
X259284755Y-76218036D01*
X259160511Y-76518020D01*
X258197428Y-76518020D01*
X258169210Y-76475789D01*
X255988421Y-74295000D01*
X259094883Y-74295000D01*
X259188587Y-74766083D01*
X259455435Y-75165448D01*
X259854800Y-75432296D01*
X260325883Y-75526000D01*
X260374117Y-75526000D01*
X260845200Y-75432296D01*
X261244565Y-75165448D01*
X261511413Y-74766083D01*
X261605117Y-74295000D01*
X261511413Y-73823917D01*
X261244565Y-73424552D01*
X260845200Y-73157704D01*
X260374117Y-73064000D01*
X260325883Y-73064000D01*
X259854800Y-73157704D01*
X259455435Y-73424552D01*
X259188587Y-73823917D01*
X259094883Y-74295000D01*
X255988421Y-74295000D01*
X249500599Y-67807179D01*
X249555000Y-67818000D01*
X255219310Y-67818000D01*
X255219081Y-68080816D01*
X255323268Y-68332967D01*
X255397000Y-68406828D01*
X255397000Y-68580000D01*
X255435669Y-68774403D01*
X255545790Y-68939210D01*
X258720790Y-72114210D01*
X258885597Y-72224331D01*
X259080000Y-72263000D01*
X259111536Y-72263000D01*
X259111536Y-72605000D01*
X259138103Y-72746190D01*
X259221546Y-72875865D01*
X259348866Y-72962859D01*
X259500000Y-72993464D01*
X261200000Y-72993464D01*
X261341190Y-72966897D01*
X261470865Y-72883454D01*
X261557859Y-72756134D01*
X261588464Y-72605000D01*
X261588464Y-70905000D01*
X261561897Y-70763810D01*
X261478454Y-70634135D01*
X261351134Y-70547141D01*
X261200000Y-70516536D01*
X259500000Y-70516536D01*
X259358810Y-70543103D01*
X259229135Y-70626546D01*
X259142141Y-70753866D01*
X259111536Y-70905000D01*
X259111536Y-71068116D01*
X256431681Y-68388261D01*
X256486054Y-68333982D01*
X256515951Y-68261980D01*
X259160511Y-68261980D01*
X259284755Y-68561964D01*
X259601944Y-68922652D01*
X260033018Y-69134501D01*
X260223000Y-69074193D01*
X260223000Y-68072000D01*
X260477000Y-68072000D01*
X260477000Y-69074193D01*
X260666982Y-69134501D01*
X261098056Y-68922652D01*
X261415245Y-68561964D01*
X261539489Y-68261980D01*
X261478627Y-68072000D01*
X260477000Y-68072000D01*
X260223000Y-68072000D01*
X259221373Y-68072000D01*
X259160511Y-68261980D01*
X256515951Y-68261980D01*
X256590681Y-68082013D01*
X256590919Y-67809184D01*
X256516064Y-67628020D01*
X259160511Y-67628020D01*
X259221373Y-67818000D01*
X260223000Y-67818000D01*
X260223000Y-66815807D01*
X260477000Y-66815807D01*
X260477000Y-67818000D01*
X261478627Y-67818000D01*
X261539489Y-67628020D01*
X261415245Y-67328036D01*
X261098056Y-66967348D01*
X260666982Y-66755499D01*
X260477000Y-66815807D01*
X260223000Y-66815807D01*
X260033018Y-66755499D01*
X259601944Y-66967348D01*
X259284755Y-67328036D01*
X259160511Y-67628020D01*
X256516064Y-67628020D01*
X256486732Y-67557033D01*
X256431608Y-67501812D01*
X258528420Y-65405000D01*
X259094883Y-65405000D01*
X259188587Y-65876083D01*
X259455435Y-66275448D01*
X259854800Y-66542296D01*
X260325883Y-66636000D01*
X260374117Y-66636000D01*
X260845200Y-66542296D01*
X261244565Y-66275448D01*
X261511413Y-65876083D01*
X261605117Y-65405000D01*
X261511413Y-64933917D01*
X261244565Y-64534552D01*
X260845200Y-64267704D01*
X260374117Y-64174000D01*
X260325883Y-64174000D01*
X259854800Y-64267704D01*
X259455435Y-64534552D01*
X259188587Y-64933917D01*
X259094883Y-65405000D01*
X258528420Y-65405000D01*
X259829956Y-64103464D01*
X261200000Y-64103464D01*
X261341190Y-64076897D01*
X261470865Y-63993454D01*
X261557859Y-63866134D01*
X261588464Y-63715000D01*
X261588464Y-62015000D01*
X261561897Y-61873810D01*
X261478454Y-61744135D01*
X261351134Y-61657141D01*
X261200000Y-61626536D01*
X259500000Y-61626536D01*
X259358810Y-61653103D01*
X259229135Y-61736546D01*
X259142141Y-61863866D01*
X259111536Y-62015000D01*
X259111536Y-63385044D01*
X255694580Y-66802000D01*
X249765420Y-66802000D01*
X248009210Y-65045790D01*
X247844403Y-64935669D01*
X247650000Y-64897000D01*
X244685421Y-64897000D01*
X244348000Y-64559580D01*
X244348000Y-62056908D01*
X244421054Y-61983982D01*
X244525681Y-61732013D01*
X244525919Y-61459184D01*
X244421732Y-61207033D01*
X244228982Y-61013946D01*
X243977013Y-60909319D01*
X243704184Y-60909081D01*
X243702971Y-60909582D01*
X243674331Y-60765597D01*
X243619950Y-60684210D01*
X243564211Y-60600790D01*
X242929210Y-59965790D01*
X242764403Y-59855669D01*
X242570000Y-59817000D01*
X242396908Y-59817000D01*
X242323982Y-59743946D01*
X242072013Y-59639319D01*
X241799184Y-59639081D01*
X241547033Y-59743268D01*
X241353946Y-59936018D01*
X241249319Y-60187987D01*
X241249081Y-60460816D01*
X241353268Y-60712967D01*
X241546018Y-60906054D01*
X241675942Y-60960004D01*
X241547033Y-61013268D01*
X241353946Y-61206018D01*
X241249319Y-61457987D01*
X241249081Y-61730816D01*
X241353268Y-61982967D01*
X241427000Y-62056828D01*
X241427000Y-63449310D01*
X241164184Y-63449081D01*
X240912033Y-63553268D01*
X240718946Y-63746018D01*
X240614319Y-63997987D01*
X240614228Y-64102352D01*
X240454580Y-64262000D01*
X235160421Y-64262000D01*
X234841681Y-63943260D01*
X234896054Y-63888982D01*
X235000681Y-63637013D01*
X235000919Y-63364184D01*
X234896732Y-63112033D01*
X234703982Y-62918946D01*
X234452013Y-62814319D01*
X234179184Y-62814081D01*
X233927033Y-62918268D01*
X233733946Y-63111018D01*
X233629319Y-63362987D01*
X233629081Y-63635816D01*
X233733268Y-63887967D01*
X233807000Y-63961828D01*
X233807000Y-64135000D01*
X233845669Y-64329403D01*
X233955790Y-64494210D01*
X234590790Y-65129211D01*
X234755597Y-65239331D01*
X234950000Y-65278000D01*
X238549580Y-65278000D01*
X239344171Y-66072591D01*
X239344081Y-66175816D01*
X239448268Y-66427967D01*
X239641018Y-66621054D01*
X239892987Y-66725681D01*
X240165816Y-66725919D01*
X240417967Y-66621732D01*
X240611054Y-66428982D01*
X240715681Y-66177013D01*
X240715919Y-65904184D01*
X240611732Y-65652033D01*
X240418982Y-65458946D01*
X240167013Y-65354319D01*
X240062648Y-65354228D01*
X239986420Y-65278000D01*
X240665000Y-65278000D01*
X240859403Y-65239331D01*
X241024210Y-65129210D01*
X241332592Y-64820829D01*
X241427000Y-64820911D01*
X241427000Y-65829580D01*
X233469580Y-73787000D01*
X232410000Y-73787000D01*
X232215597Y-73825669D01*
X232050790Y-73935789D01*
X231742408Y-74244171D01*
X231639184Y-74244081D01*
X231387033Y-74348268D01*
X231193946Y-74541018D01*
X231089319Y-74792987D01*
X231089081Y-75065816D01*
X231193268Y-75317967D01*
X231386018Y-75511054D01*
X231637987Y-75615681D01*
X231640896Y-75615684D01*
X227754580Y-79502000D01*
X223520000Y-79502000D01*
X223357850Y-79534254D01*
X223325596Y-79540669D01*
X223160790Y-79650790D01*
X222217409Y-80594171D01*
X222114184Y-80594081D01*
X221862033Y-80698268D01*
X221668946Y-80891018D01*
X221564319Y-81142987D01*
X221564081Y-81415816D01*
X217244604Y-81415816D01*
X220250592Y-78409829D01*
X220353816Y-78409919D01*
X220605967Y-78305732D01*
X220799054Y-78112982D01*
X220903681Y-77861013D01*
X220903919Y-77588184D01*
X220799732Y-77336033D01*
X220606982Y-77142946D01*
X220355013Y-77038319D01*
X220082184Y-77038081D01*
X219830033Y-77142268D01*
X219636946Y-77335018D01*
X219532319Y-77586987D01*
X219532228Y-77691351D01*
X216726230Y-80497350D01*
X216667565Y-80409552D01*
X216268200Y-80142704D01*
X215797117Y-80049000D01*
X215748883Y-80049000D01*
X215277800Y-80142704D01*
X214878435Y-80409552D01*
X214611587Y-80808917D01*
X214517883Y-81280000D01*
X212344000Y-81280000D01*
X212344000Y-78158708D01*
X212465435Y-78340448D01*
X212864800Y-78607296D01*
X213335883Y-78701000D01*
X213384117Y-78701000D01*
X213855200Y-78607296D01*
X214254565Y-78340448D01*
X214521413Y-77941083D01*
X214615117Y-77470000D01*
X214521413Y-76998917D01*
X214254565Y-76599552D01*
X213855200Y-76332704D01*
X213384117Y-76239000D01*
X213335883Y-76239000D01*
X212864800Y-76332704D01*
X212465435Y-76599552D01*
X212344000Y-76781292D01*
X212344000Y-75618708D01*
X212465435Y-75800448D01*
X212864800Y-76067296D01*
X213335883Y-76161000D01*
X213384117Y-76161000D01*
X213855200Y-76067296D01*
X214254565Y-75800448D01*
X214521413Y-75401083D01*
X214615117Y-74930000D01*
X214526073Y-74482347D01*
X214840420Y-74168000D01*
X214932972Y-74168000D01*
X214738587Y-74458917D01*
X214644883Y-74930000D01*
X214738587Y-75401083D01*
X215005435Y-75800448D01*
X215404800Y-76067296D01*
X215875883Y-76161000D01*
X215924117Y-76161000D01*
X216331539Y-76079959D01*
X216483116Y-76231536D01*
X215050000Y-76231536D01*
X214908810Y-76258103D01*
X214779135Y-76341546D01*
X214692141Y-76468866D01*
X214661536Y-76620000D01*
X214661536Y-78320000D01*
X214688103Y-78461190D01*
X214771546Y-78590865D01*
X214898866Y-78677859D01*
X215050000Y-78708464D01*
X215082274Y-78708464D01*
X214877033Y-78793268D01*
X214683946Y-78986018D01*
X214579319Y-79237987D01*
X214579081Y-79510816D01*
X214683268Y-79762967D01*
X214876018Y-79956054D01*
X215127987Y-80060681D01*
X215400816Y-80060919D01*
X215652967Y-79956732D01*
X215726828Y-79883000D01*
X216535000Y-79883000D01*
X216729403Y-79844331D01*
X216894210Y-79734210D01*
X218164210Y-78464210D01*
X218274331Y-78299404D01*
X218287738Y-78232000D01*
X218313000Y-78105000D01*
X218313000Y-76843816D01*
X224866081Y-76843816D01*
X224970268Y-77095967D01*
X225163018Y-77289054D01*
X225414987Y-77393681D01*
X225687816Y-77393919D01*
X225939967Y-77289732D01*
X226133054Y-77096982D01*
X226237681Y-76845013D01*
X226237772Y-76740648D01*
X230229210Y-72749210D01*
X230339331Y-72584404D01*
X230378000Y-72390000D01*
X230378000Y-71581908D01*
X230451054Y-71508982D01*
X230555681Y-71257013D01*
X230555919Y-70984184D01*
X230451732Y-70732033D01*
X230258982Y-70538946D01*
X230007013Y-70434319D01*
X229734184Y-70434081D01*
X229482033Y-70538268D01*
X229288946Y-70731018D01*
X229184319Y-70982987D01*
X229184081Y-71255816D01*
X229288268Y-71507967D01*
X229362000Y-71581828D01*
X229362000Y-72179580D01*
X225519409Y-76022171D01*
X225416184Y-76022081D01*
X225164033Y-76126268D01*
X224970946Y-76319018D01*
X224866319Y-76570987D01*
X224866081Y-76843816D01*
X218313000Y-76843816D01*
X218313000Y-76835000D01*
X218274331Y-76640597D01*
X218164210Y-76475790D01*
X217066073Y-75377653D01*
X217155117Y-74930000D01*
X217061413Y-74458917D01*
X216867028Y-74168000D01*
X218864580Y-74168000D01*
X220620790Y-75924210D01*
X220785597Y-76034331D01*
X220980000Y-76073000D01*
X223520000Y-76073000D01*
X223714403Y-76034331D01*
X223879210Y-75924210D01*
X229445421Y-70358000D01*
X230929580Y-70358000D01*
X231089171Y-70517592D01*
X231089081Y-70620816D01*
X231193268Y-70872967D01*
X231386018Y-71066054D01*
X231637987Y-71170681D01*
X231910816Y-71170919D01*
X232162967Y-71066732D01*
X232356054Y-70873982D01*
X232460681Y-70622013D01*
X232460919Y-70349184D01*
X232356732Y-70097033D01*
X232163982Y-69903946D01*
X231912013Y-69799319D01*
X231807648Y-69799228D01*
X231499210Y-69490790D01*
X231334403Y-69380669D01*
X231140000Y-69342000D01*
X229235000Y-69342000D01*
X229180600Y-69352821D01*
X229267592Y-69265829D01*
X229370816Y-69265919D01*
X229622967Y-69161732D01*
X229816054Y-68968982D01*
X229920681Y-68717013D01*
X229920919Y-68444184D01*
X229842869Y-68255289D01*
X229946171Y-68358591D01*
X229946081Y-68461816D01*
X230050268Y-68713967D01*
X230243018Y-68907054D01*
X230494987Y-69011681D01*
X230767816Y-69011919D01*
X231019967Y-68907732D01*
X231213054Y-68714982D01*
X231317681Y-68463013D01*
X231317919Y-68190184D01*
X231213732Y-67938033D01*
X231020982Y-67744946D01*
X230769013Y-67640319D01*
X230664648Y-67640228D01*
X230229210Y-67204790D01*
X230064403Y-67094669D01*
X229870000Y-67056000D01*
X230424092Y-67056000D01*
X230497018Y-67129054D01*
X230748987Y-67233681D01*
X231021816Y-67233919D01*
X231273967Y-67129732D01*
X231467054Y-66936982D01*
X231571681Y-66685013D01*
X231571919Y-66412184D01*
X231467732Y-66160033D01*
X231274982Y-65966946D01*
X231023013Y-65862319D01*
X230750184Y-65862081D01*
X230498033Y-65966268D01*
X230424172Y-66040000D01*
X228048421Y-66040000D01*
X224374237Y-62365816D01*
X231089081Y-62365816D01*
X231193268Y-62617967D01*
X231386018Y-62811054D01*
X231637987Y-62915681D01*
X231910816Y-62915919D01*
X232162967Y-62811732D01*
X232236828Y-62738000D01*
X237663092Y-62738000D01*
X237736018Y-62811054D01*
X237987987Y-62915681D01*
X238260816Y-62915919D01*
X238512967Y-62811732D01*
X238706054Y-62618982D01*
X238810681Y-62367013D01*
X238810919Y-62094184D01*
X238706732Y-61842033D01*
X238513982Y-61648946D01*
X238262013Y-61544319D01*
X237989184Y-61544081D01*
X237737033Y-61648268D01*
X237663172Y-61722000D01*
X232236908Y-61722000D01*
X232163982Y-61648946D01*
X231912013Y-61544319D01*
X231639184Y-61544081D01*
X231387033Y-61648268D01*
X231193946Y-61841018D01*
X231089319Y-62092987D01*
X231089081Y-62365816D01*
X224374237Y-62365816D01*
X223774000Y-61765580D01*
X223774000Y-59944000D01*
X223735331Y-59749597D01*
X223735331Y-59749596D01*
X223625210Y-59584790D01*
X222681829Y-58641409D01*
X222681919Y-58538184D01*
X222577732Y-58286033D01*
X222384982Y-58092946D01*
X222133013Y-57988319D01*
X221860184Y-57988081D01*
X221608033Y-58092268D01*
X221414946Y-58285018D01*
X221310319Y-58536987D01*
X221310081Y-58809816D01*
X221414268Y-59061967D01*
X221607018Y-59255054D01*
X221858987Y-59359681D01*
X221963352Y-59359772D01*
X222758000Y-60154420D01*
X222758000Y-61976000D01*
X222796669Y-62170403D01*
X222906790Y-62335210D01*
X227478789Y-66907210D01*
X227537211Y-66946247D01*
X227450033Y-66982268D01*
X227256946Y-67175018D01*
X227152319Y-67426987D01*
X227152081Y-67699816D01*
X227256268Y-67951967D01*
X227449018Y-68145054D01*
X227700987Y-68249681D01*
X227973816Y-68249919D01*
X228225967Y-68145732D01*
X228299828Y-68072000D01*
X228773172Y-68072000D01*
X228653946Y-68191018D01*
X228549319Y-68442987D01*
X228549228Y-68547351D01*
X223487409Y-73609171D01*
X223384184Y-73609081D01*
X223132033Y-73713268D01*
X222938946Y-73906018D01*
X222834319Y-74157987D01*
X222834081Y-74430816D01*
X222938268Y-74682967D01*
X223131018Y-74876054D01*
X223382987Y-74980681D01*
X223385896Y-74980684D01*
X223309580Y-75057000D01*
X221190420Y-75057000D01*
X219434210Y-73300790D01*
X219269403Y-73190669D01*
X219075000Y-73152000D01*
X216867028Y-73152000D01*
X217061413Y-72861083D01*
X217155117Y-72390000D01*
X217061413Y-71918917D01*
X216794565Y-71519552D01*
X216395200Y-71252704D01*
X215924117Y-71159000D01*
X215875883Y-71159000D01*
X215404800Y-71252704D01*
X215005435Y-71519552D01*
X214738587Y-71918917D01*
X214644883Y-72390000D01*
X214738587Y-72861083D01*
X214932972Y-73152000D01*
X214630000Y-73152000D01*
X214467850Y-73184254D01*
X214435596Y-73190669D01*
X214270790Y-73300790D01*
X213791539Y-73780041D01*
X213384117Y-73699000D01*
X213335883Y-73699000D01*
X212864800Y-73792704D01*
X212465435Y-74059552D01*
X212344000Y-74241292D01*
X212344000Y-73062962D01*
X212611944Y-73367652D01*
X213043018Y-73579501D01*
X213233000Y-73519193D01*
X213233000Y-72517000D01*
X213487000Y-72517000D01*
X213487000Y-73519193D01*
X213676982Y-73579501D01*
X214108056Y-73367652D01*
X214425245Y-73006964D01*
X214549489Y-72706980D01*
X214488627Y-72517000D01*
X213487000Y-72517000D01*
X213233000Y-72517000D01*
X213213000Y-72517000D01*
X213213000Y-72263000D01*
X213233000Y-72263000D01*
X213233000Y-71260807D01*
X213487000Y-71260807D01*
X213487000Y-72263000D01*
X214488627Y-72263000D01*
X214549489Y-72073020D01*
X214425245Y-71773036D01*
X214108056Y-71412348D01*
X213676982Y-71200499D01*
X213487000Y-71260807D01*
X213233000Y-71260807D01*
X213043018Y-71200499D01*
X212611944Y-71412348D01*
X212344000Y-71717038D01*
X212344000Y-70747816D01*
X218008081Y-70747816D01*
X218112268Y-70999967D01*
X218305018Y-71193054D01*
X218556987Y-71297681D01*
X218829816Y-71297919D01*
X219081967Y-71193732D01*
X219275054Y-71000982D01*
X219379681Y-70749013D01*
X219379772Y-70644648D01*
X223397983Y-66626438D01*
X223636987Y-66725681D01*
X223909816Y-66725919D01*
X224161967Y-66621732D01*
X224355054Y-66428982D01*
X224459681Y-66177013D01*
X224459919Y-65904184D01*
X224355732Y-65652033D01*
X224162982Y-65458946D01*
X223911013Y-65354319D01*
X223638184Y-65354081D01*
X223386033Y-65458268D01*
X223312172Y-65532000D01*
X223266000Y-65532000D01*
X223103850Y-65564254D01*
X223071596Y-65570669D01*
X222906789Y-65680790D01*
X218661409Y-69926171D01*
X218558184Y-69926081D01*
X218306033Y-70030268D01*
X218112946Y-70223018D01*
X218008319Y-70474987D01*
X218008081Y-70747816D01*
X212344000Y-70747816D01*
X212344000Y-70060420D01*
X212630591Y-69773829D01*
X212733816Y-69773919D01*
X212985967Y-69669732D01*
X213179054Y-69476982D01*
X213283681Y-69225013D01*
X213283919Y-68952184D01*
X213221968Y-68802250D01*
X214542000Y-68802250D01*
X214542000Y-69505785D01*
X214600004Y-69645819D01*
X214707180Y-69752996D01*
X214847214Y-69811000D01*
X215550750Y-69811000D01*
X215646000Y-69715750D01*
X215646000Y-68707000D01*
X215900000Y-68707000D01*
X215900000Y-69715750D01*
X215995250Y-69811000D01*
X216698786Y-69811000D01*
X216838820Y-69752996D01*
X216945996Y-69645819D01*
X217004000Y-69505785D01*
X217004000Y-68802250D01*
X216908750Y-68707000D01*
X215900000Y-68707000D01*
X215646000Y-68707000D01*
X214637250Y-68707000D01*
X214542000Y-68802250D01*
X213221968Y-68802250D01*
X213179732Y-68700033D01*
X212986982Y-68506946D01*
X212735013Y-68402319D01*
X212462184Y-68402081D01*
X212210033Y-68506268D01*
X212016946Y-68699018D01*
X211912319Y-68950987D01*
X211912228Y-69055352D01*
X211476790Y-69490790D01*
X211366669Y-69655597D01*
X211328000Y-69850000D01*
X209931000Y-69850000D01*
X209931000Y-67654215D01*
X214542000Y-67654215D01*
X214542000Y-68357750D01*
X214637250Y-68453000D01*
X215646000Y-68453000D01*
X215646000Y-67444250D01*
X215900000Y-67444250D01*
X215900000Y-68453000D01*
X216908750Y-68453000D01*
X217004000Y-68357750D01*
X217004000Y-67654215D01*
X216945996Y-67514181D01*
X216838820Y-67407004D01*
X216698786Y-67349000D01*
X215995250Y-67349000D01*
X215900000Y-67444250D01*
X215646000Y-67444250D01*
X215550750Y-67349000D01*
X214847214Y-67349000D01*
X214707180Y-67407004D01*
X214600004Y-67514181D01*
X214542000Y-67654215D01*
X209931000Y-67654215D01*
X209931000Y-66040000D01*
X214517883Y-66040000D01*
X214611587Y-66511083D01*
X214878435Y-66910448D01*
X215277800Y-67177296D01*
X215748883Y-67271000D01*
X215797117Y-67271000D01*
X216268200Y-67177296D01*
X216667565Y-66910448D01*
X216934413Y-66511083D01*
X217028117Y-66040000D01*
X216934413Y-65568917D01*
X216667565Y-65169552D01*
X216268200Y-64902704D01*
X215797117Y-64809000D01*
X215748883Y-64809000D01*
X215277800Y-64902704D01*
X214878435Y-65169552D01*
X214611587Y-65568917D01*
X214517883Y-66040000D01*
X209931000Y-66040000D01*
X209931000Y-63500000D01*
X214517883Y-63500000D01*
X214611587Y-63971083D01*
X214878435Y-64370448D01*
X215277800Y-64637296D01*
X215748883Y-64731000D01*
X215797117Y-64731000D01*
X216268200Y-64637296D01*
X216667565Y-64370448D01*
X216909746Y-64008000D01*
X218948000Y-64008000D01*
X219142403Y-63969331D01*
X219307210Y-63859210D01*
X220758591Y-62407829D01*
X220861816Y-62407919D01*
X221113967Y-62303732D01*
X221307054Y-62110982D01*
X221411681Y-61859013D01*
X221411919Y-61586184D01*
X221307732Y-61334033D01*
X221114982Y-61140946D01*
X220863013Y-61036319D01*
X220590184Y-61036081D01*
X220338033Y-61140268D01*
X220144946Y-61333018D01*
X220040319Y-61584987D01*
X220040228Y-61689352D01*
X218737580Y-62992000D01*
X216909746Y-62992000D01*
X216667565Y-62629552D01*
X216268200Y-62362704D01*
X215797117Y-62269000D01*
X215748883Y-62269000D01*
X215277800Y-62362704D01*
X214878435Y-62629552D01*
X214611587Y-63028917D01*
X214517883Y-63500000D01*
X209931000Y-63500000D01*
X209931000Y-59277250D01*
X214415000Y-59277250D01*
X214415000Y-59980785D01*
X214473004Y-60120819D01*
X214580180Y-60227996D01*
X214720214Y-60286000D01*
X215423750Y-60286000D01*
X215519000Y-60190750D01*
X215519000Y-59182000D01*
X215773000Y-59182000D01*
X215773000Y-60190750D01*
X215868250Y-60286000D01*
X216571786Y-60286000D01*
X216711820Y-60227996D01*
X216818996Y-60120819D01*
X216877000Y-59980785D01*
X216877000Y-59277250D01*
X216781750Y-59182000D01*
X215773000Y-59182000D01*
X215519000Y-59182000D01*
X214510250Y-59182000D01*
X214415000Y-59277250D01*
X209931000Y-59277250D01*
X209931000Y-58129215D01*
X214415000Y-58129215D01*
X214415000Y-58832750D01*
X214510250Y-58928000D01*
X215519000Y-58928000D01*
X215519000Y-57919250D01*
X215773000Y-57919250D01*
X215773000Y-58928000D01*
X216781750Y-58928000D01*
X216877000Y-58832750D01*
X216877000Y-58129215D01*
X216818996Y-57989181D01*
X216711820Y-57882004D01*
X216571786Y-57824000D01*
X215868250Y-57824000D01*
X215773000Y-57919250D01*
X215519000Y-57919250D01*
X215423750Y-57824000D01*
X214720214Y-57824000D01*
X214580180Y-57882004D01*
X214473004Y-57989181D01*
X214415000Y-58129215D01*
X209931000Y-58129215D01*
X209931000Y-56515000D01*
X214390883Y-56515000D01*
X214484587Y-56986083D01*
X214751435Y-57385448D01*
X215150800Y-57652296D01*
X215621883Y-57746000D01*
X215670117Y-57746000D01*
X216141200Y-57652296D01*
X216540565Y-57385448D01*
X216807413Y-56986083D01*
X216874101Y-56650816D01*
X241249081Y-56650816D01*
X241353268Y-56902967D01*
X241546018Y-57096054D01*
X241797987Y-57200681D01*
X242070816Y-57200919D01*
X242322967Y-57096732D01*
X242516054Y-56903982D01*
X242620681Y-56652013D01*
X242620772Y-56547648D01*
X244685421Y-54483000D01*
X252773580Y-54483000D01*
X249979580Y-57277000D01*
X247476908Y-57277000D01*
X247403982Y-57203946D01*
X247152013Y-57099319D01*
X246879184Y-57099081D01*
X246627033Y-57203268D01*
X246433946Y-57396018D01*
X246329319Y-57647987D01*
X246329081Y-57920816D01*
X246433268Y-58172967D01*
X246626018Y-58366054D01*
X246877987Y-58470681D01*
X247150816Y-58470919D01*
X247402967Y-58366732D01*
X247476828Y-58293000D01*
X250190000Y-58293000D01*
X250384403Y-58254331D01*
X250549210Y-58144210D01*
X253575420Y-55118000D01*
X254173092Y-55118000D01*
X254246018Y-55191054D01*
X254497987Y-55295681D01*
X254770816Y-55295919D01*
X255022967Y-55191732D01*
X255216054Y-54998982D01*
X255320681Y-54747013D01*
X255320684Y-54744104D01*
X255397000Y-54820421D01*
X255397000Y-64943092D01*
X255323946Y-65016018D01*
X255219319Y-65267987D01*
X255219081Y-65540816D01*
X255323268Y-65792967D01*
X255516018Y-65986054D01*
X255767987Y-66090681D01*
X256040816Y-66090919D01*
X256292967Y-65986732D01*
X256486054Y-65793982D01*
X256590681Y-65542013D01*
X256590919Y-65269184D01*
X256486732Y-65017033D01*
X256413000Y-64943172D01*
X256413000Y-59371980D01*
X259160511Y-59371980D01*
X259284755Y-59671964D01*
X259601944Y-60032652D01*
X260033018Y-60244501D01*
X260223000Y-60184193D01*
X260223000Y-59182000D01*
X260477000Y-59182000D01*
X260477000Y-60184193D01*
X260666982Y-60244501D01*
X261098056Y-60032652D01*
X261415245Y-59671964D01*
X261539489Y-59371980D01*
X261478627Y-59182000D01*
X260477000Y-59182000D01*
X260223000Y-59182000D01*
X259221373Y-59182000D01*
X259160511Y-59371980D01*
X256413000Y-59371980D01*
X256413000Y-58738020D01*
X259160511Y-58738020D01*
X259221373Y-58928000D01*
X260223000Y-58928000D01*
X260223000Y-57925807D01*
X260477000Y-57925807D01*
X260477000Y-58928000D01*
X261478627Y-58928000D01*
X261539489Y-58738020D01*
X261415245Y-58438036D01*
X261098056Y-58077348D01*
X260666982Y-57865499D01*
X260477000Y-57925807D01*
X260223000Y-57925807D01*
X260033018Y-57865499D01*
X259601944Y-58077348D01*
X259284755Y-58438036D01*
X259160511Y-58738020D01*
X256413000Y-58738020D01*
X256413000Y-56515000D01*
X259094883Y-56515000D01*
X259188587Y-56986083D01*
X259455435Y-57385448D01*
X259854800Y-57652296D01*
X260325883Y-57746000D01*
X260374117Y-57746000D01*
X260845200Y-57652296D01*
X261244565Y-57385448D01*
X261511413Y-56986083D01*
X261605117Y-56515000D01*
X261511413Y-56043917D01*
X261244565Y-55644552D01*
X260845200Y-55377704D01*
X260374117Y-55284000D01*
X260325883Y-55284000D01*
X259854800Y-55377704D01*
X259455435Y-55644552D01*
X259188587Y-56043917D01*
X259094883Y-56515000D01*
X256413000Y-56515000D01*
X256413000Y-54610000D01*
X256374331Y-54415597D01*
X256264211Y-54250790D01*
X255629210Y-53615790D01*
X255464403Y-53505669D01*
X255270000Y-53467000D01*
X244475000Y-53467000D01*
X244280597Y-53505669D01*
X244280595Y-53505670D01*
X244280596Y-53505670D01*
X244115789Y-53615790D01*
X241902409Y-55829171D01*
X241799184Y-55829081D01*
X241547033Y-55933268D01*
X241353946Y-56126018D01*
X241249319Y-56377987D01*
X241249081Y-56650816D01*
X216874101Y-56650816D01*
X216901117Y-56515000D01*
X216807413Y-56043917D01*
X216540565Y-55644552D01*
X216141200Y-55377704D01*
X215670117Y-55284000D01*
X215621883Y-55284000D01*
X215150800Y-55377704D01*
X214751435Y-55644552D01*
X214484587Y-56043917D01*
X214390883Y-56515000D01*
X209931000Y-56515000D01*
X209931000Y-53975000D01*
X214390883Y-53975000D01*
X214484587Y-54446083D01*
X214751435Y-54845448D01*
X215150800Y-55112296D01*
X215621883Y-55206000D01*
X215670117Y-55206000D01*
X216141200Y-55112296D01*
X216540565Y-54845448D01*
X216782746Y-54483000D01*
X220388580Y-54483000D01*
X221310171Y-55404591D01*
X221310081Y-55507816D01*
X221414268Y-55759967D01*
X221607018Y-55953054D01*
X221858987Y-56057681D01*
X222131816Y-56057919D01*
X222383967Y-55953732D01*
X222577054Y-55760982D01*
X222681681Y-55509013D01*
X222681919Y-55236184D01*
X222577732Y-54984033D01*
X222384982Y-54790946D01*
X222133013Y-54686319D01*
X222028648Y-54686228D01*
X220958210Y-53615790D01*
X220793403Y-53505669D01*
X220599000Y-53467000D01*
X216782746Y-53467000D01*
X216554228Y-53125000D01*
X259111536Y-53125000D01*
X259111536Y-54825000D01*
X259138103Y-54966190D01*
X259221546Y-55095865D01*
X259348866Y-55182859D01*
X259500000Y-55213464D01*
X261200000Y-55213464D01*
X261341190Y-55186897D01*
X261470865Y-55103454D01*
X261557859Y-54976134D01*
X261588464Y-54825000D01*
X261588464Y-53125000D01*
X261561897Y-52983810D01*
X261478454Y-52854135D01*
X261351134Y-52767141D01*
X261200000Y-52736536D01*
X259500000Y-52736536D01*
X259358810Y-52763103D01*
X259229135Y-52846546D01*
X259142141Y-52973866D01*
X259111536Y-53125000D01*
X216554228Y-53125000D01*
X216540565Y-53104552D01*
X216141200Y-52837704D01*
X215670117Y-52744000D01*
X215621883Y-52744000D01*
X215150800Y-52837704D01*
X214751435Y-53104552D01*
X214484587Y-53503917D01*
X214390883Y-53975000D01*
X209931000Y-53975000D01*
X209931000Y-50927000D01*
X263271000Y-50927000D01*
X263271000Y-98425000D01*
X263271000Y-98425000D01*
G37*
X263271000Y-98425000D02*
X263074000Y-98425000D01*
X263074000Y-96424857D01*
X259762000Y-96424857D01*
X259762000Y-98425000D01*
X209931000Y-98425000D01*
X209931000Y-95472250D01*
X214669000Y-95472250D01*
X214669000Y-96175785D01*
X214727004Y-96315819D01*
X214834180Y-96422996D01*
X214974214Y-96481000D01*
X215677750Y-96481000D01*
X215773000Y-96385750D01*
X215773000Y-95377000D01*
X216027000Y-95377000D01*
X216027000Y-96385750D01*
X216122250Y-96481000D01*
X216825786Y-96481000D01*
X216965820Y-96422996D01*
X217072996Y-96315819D01*
X217131000Y-96175785D01*
X217131000Y-95472250D01*
X217035750Y-95377000D01*
X216027000Y-95377000D01*
X215773000Y-95377000D01*
X214764250Y-95377000D01*
X214669000Y-95472250D01*
X209931000Y-95472250D01*
X209931000Y-94324215D01*
X214669000Y-94324215D01*
X214669000Y-95027750D01*
X214764250Y-95123000D01*
X215773000Y-95123000D01*
X215773000Y-94114250D01*
X216027000Y-94114250D01*
X216027000Y-95123000D01*
X217035750Y-95123000D01*
X217131000Y-95027750D01*
X217131000Y-94324215D01*
X217072996Y-94184181D01*
X216965820Y-94077004D01*
X216825786Y-94019000D01*
X216122250Y-94019000D01*
X216027000Y-94114250D01*
X215773000Y-94114250D01*
X215677750Y-94019000D01*
X214974214Y-94019000D01*
X214834180Y-94077004D01*
X214727004Y-94184181D01*
X214669000Y-94324215D01*
X209931000Y-94324215D01*
X209931000Y-92710000D01*
X214644883Y-92710000D01*
X214738587Y-93181083D01*
X215005435Y-93580448D01*
X215404800Y-93847296D01*
X215875883Y-93941000D01*
X215924117Y-93941000D01*
X216395200Y-93847296D01*
X216794565Y-93580448D01*
X217061413Y-93181083D01*
X217155117Y-92710000D01*
X217061413Y-92238917D01*
X216794565Y-91839552D01*
X216395200Y-91572704D01*
X215924117Y-91479000D01*
X215875883Y-91479000D01*
X215404800Y-91572704D01*
X215005435Y-91839552D01*
X214738587Y-92238917D01*
X214644883Y-92710000D01*
X209931000Y-92710000D01*
X209931000Y-90170000D01*
X214644883Y-90170000D01*
X214738587Y-90641083D01*
X215005435Y-91040448D01*
X215404800Y-91307296D01*
X215875883Y-91401000D01*
X215924117Y-91401000D01*
X216395200Y-91307296D01*
X216794565Y-91040448D01*
X217061413Y-90641083D01*
X217155117Y-90170000D01*
X217061413Y-89698917D01*
X216794565Y-89299552D01*
X216395200Y-89032704D01*
X215924117Y-88939000D01*
X215875883Y-88939000D01*
X215404800Y-89032704D01*
X215005435Y-89299552D01*
X214738587Y-89698917D01*
X214644883Y-90170000D01*
X209931000Y-90170000D01*
X209931000Y-69850000D01*
X211328000Y-69850000D01*
X211328000Y-86868000D01*
X211366669Y-87062403D01*
X211404202Y-87118576D01*
X211404081Y-87257816D01*
X211508268Y-87509967D01*
X211701018Y-87703054D01*
X211952987Y-87807681D01*
X212225816Y-87807919D01*
X212477967Y-87703732D01*
X212671054Y-87510982D01*
X212775681Y-87259013D01*
X212775919Y-86986184D01*
X212671732Y-86734033D01*
X212520214Y-86582250D01*
X214542000Y-86582250D01*
X214542000Y-87285785D01*
X214600004Y-87425819D01*
X214707180Y-87532996D01*
X214847214Y-87591000D01*
X215550750Y-87591000D01*
X215646000Y-87495750D01*
X215646000Y-86487000D01*
X215900000Y-86487000D01*
X215900000Y-87495750D01*
X215995250Y-87591000D01*
X216698786Y-87591000D01*
X216838820Y-87532996D01*
X216945996Y-87425819D01*
X217004000Y-87285785D01*
X217004000Y-86582250D01*
X216908750Y-86487000D01*
X215900000Y-86487000D01*
X215646000Y-86487000D01*
X214637250Y-86487000D01*
X214542000Y-86582250D01*
X212520214Y-86582250D01*
X212478982Y-86540946D01*
X212344000Y-86484896D01*
X212344000Y-85434215D01*
X214542000Y-85434215D01*
X214542000Y-86137750D01*
X214637250Y-86233000D01*
X215646000Y-86233000D01*
X215646000Y-85224250D01*
X215900000Y-85224250D01*
X215900000Y-86233000D01*
X216908750Y-86233000D01*
X217004000Y-86137750D01*
X217004000Y-86041980D01*
X259160511Y-86041980D01*
X259284755Y-86341964D01*
X259601944Y-86702652D01*
X260033018Y-86914501D01*
X260223000Y-86854193D01*
X260223000Y-85852000D01*
X260477000Y-85852000D01*
X260477000Y-86854193D01*
X260666982Y-86914501D01*
X261098056Y-86702652D01*
X261415245Y-86341964D01*
X261539489Y-86041980D01*
X261478627Y-85852000D01*
X260477000Y-85852000D01*
X260223000Y-85852000D01*
X259221373Y-85852000D01*
X259160511Y-86041980D01*
X217004000Y-86041980D01*
X217004000Y-85434215D01*
X216993150Y-85408020D01*
X259160511Y-85408020D01*
X259221373Y-85598000D01*
X260223000Y-85598000D01*
X260223000Y-84595807D01*
X260477000Y-84595807D01*
X260477000Y-85598000D01*
X261478627Y-85598000D01*
X261539489Y-85408020D01*
X261415245Y-85108036D01*
X261098056Y-84747348D01*
X260666982Y-84535499D01*
X260477000Y-84595807D01*
X260223000Y-84595807D01*
X260033018Y-84535499D01*
X259601944Y-84747348D01*
X259284755Y-85108036D01*
X259160511Y-85408020D01*
X216993150Y-85408020D01*
X216945996Y-85294181D01*
X216838820Y-85187004D01*
X216698786Y-85129000D01*
X215995250Y-85129000D01*
X215900000Y-85224250D01*
X215646000Y-85224250D01*
X215550750Y-85129000D01*
X214847214Y-85129000D01*
X214707180Y-85187004D01*
X214600004Y-85294181D01*
X214542000Y-85434215D01*
X212344000Y-85434215D01*
X212344000Y-83820000D01*
X214517883Y-83820000D01*
X214611587Y-84291083D01*
X214878435Y-84690448D01*
X215277800Y-84957296D01*
X215748883Y-85051000D01*
X215797117Y-85051000D01*
X216268200Y-84957296D01*
X216667565Y-84690448D01*
X216934413Y-84291083D01*
X217028117Y-83820000D01*
X216934413Y-83348917D01*
X216667565Y-82949552D01*
X216268200Y-82682704D01*
X215797117Y-82589000D01*
X215748883Y-82589000D01*
X215277800Y-82682704D01*
X214878435Y-82949552D01*
X214611587Y-83348917D01*
X214517883Y-83820000D01*
X212344000Y-83820000D01*
X212344000Y-81280000D01*
X214517883Y-81280000D01*
X214611587Y-81751083D01*
X214878435Y-82150448D01*
X215277800Y-82417296D01*
X215748883Y-82511000D01*
X215797117Y-82511000D01*
X216268200Y-82417296D01*
X216667565Y-82150448D01*
X216934413Y-81751083D01*
X216946772Y-81688948D01*
X217021210Y-81639210D01*
X217244604Y-81415816D01*
X221564081Y-81415816D01*
X221668268Y-81667967D01*
X221861018Y-81861054D01*
X222112987Y-81965681D01*
X222385816Y-81965919D01*
X222410769Y-81955608D01*
X222326319Y-82158987D01*
X222326081Y-82431816D01*
X222430268Y-82683967D01*
X222623018Y-82877054D01*
X222874987Y-82981681D01*
X223147816Y-82981919D01*
X223399967Y-82877732D01*
X223473828Y-82804000D01*
X226360092Y-82804000D01*
X226433018Y-82877054D01*
X226684987Y-82981681D01*
X226957816Y-82981919D01*
X227209967Y-82877732D01*
X227403054Y-82684982D01*
X227507681Y-82433013D01*
X227507919Y-82160184D01*
X227403732Y-81908033D01*
X227210982Y-81714946D01*
X226959013Y-81610319D01*
X226686184Y-81610081D01*
X226434033Y-81714268D01*
X226360172Y-81788000D01*
X223473908Y-81788000D01*
X223400982Y-81714946D01*
X223149013Y-81610319D01*
X222876184Y-81610081D01*
X222851231Y-81620392D01*
X222935681Y-81417013D01*
X222935772Y-81312648D01*
X223730420Y-80518000D01*
X227965000Y-80518000D01*
X228159403Y-80479331D01*
X228324210Y-80369210D01*
X232442591Y-76250829D01*
X232545816Y-76250919D01*
X232797967Y-76146732D01*
X232991054Y-75953982D01*
X233095681Y-75702013D01*
X233095919Y-75429184D01*
X232991732Y-75177033D01*
X232798982Y-74983946D01*
X232547013Y-74879319D01*
X232544104Y-74879316D01*
X232620421Y-74803000D01*
X233629310Y-74803000D01*
X233629081Y-75065816D01*
X233733268Y-75317967D01*
X233788392Y-75373187D01*
X229583409Y-79578171D01*
X229480184Y-79578081D01*
X229228033Y-79682268D01*
X229034946Y-79875018D01*
X228930319Y-80126987D01*
X228930081Y-80399816D01*
X229034268Y-80651967D01*
X229227018Y-80845054D01*
X229478987Y-80949681D01*
X229751816Y-80949919D01*
X230003967Y-80845732D01*
X230197054Y-80652982D01*
X230301681Y-80401013D01*
X230301772Y-80296648D01*
X234674211Y-75924210D01*
X234784331Y-75759403D01*
X234823000Y-75565000D01*
X234823000Y-75391908D01*
X234896054Y-75318982D01*
X235000681Y-75067013D01*
X235000919Y-74794184D01*
X234896732Y-74542033D01*
X234785710Y-74430816D01*
X237439081Y-74430816D01*
X237543268Y-74682967D01*
X237617000Y-74756828D01*
X237617000Y-81280000D01*
X237655669Y-81474403D01*
X237765790Y-81639210D01*
X239035790Y-82909210D01*
X239200596Y-83019331D01*
X239232850Y-83025746D01*
X239395000Y-83058000D01*
X240203092Y-83058000D01*
X240276018Y-83131054D01*
X240527987Y-83235681D01*
X240800816Y-83235919D01*
X240924049Y-83185000D01*
X259094883Y-83185000D01*
X259188587Y-83656083D01*
X259455435Y-84055448D01*
X259854800Y-84322296D01*
X260325883Y-84416000D01*
X260374117Y-84416000D01*
X260845200Y-84322296D01*
X261244565Y-84055448D01*
X261511413Y-83656083D01*
X261605117Y-83185000D01*
X261511413Y-82713917D01*
X261244565Y-82314552D01*
X260845200Y-82047704D01*
X260374117Y-81954000D01*
X260325883Y-81954000D01*
X259854800Y-82047704D01*
X259455435Y-82314552D01*
X259188587Y-82713917D01*
X259094883Y-83185000D01*
X240924049Y-83185000D01*
X241052967Y-83131732D01*
X241246054Y-82938982D01*
X241350681Y-82687013D01*
X241350919Y-82414184D01*
X241246732Y-82162033D01*
X241053982Y-81968946D01*
X240802013Y-81864319D01*
X240529184Y-81864081D01*
X240277033Y-81968268D01*
X240203172Y-82042000D01*
X239605420Y-82042000D01*
X238633000Y-81069580D01*
X238633000Y-80145816D01*
X238709081Y-80145816D01*
X238813268Y-80397967D01*
X239006018Y-80591054D01*
X239257987Y-80695681D01*
X239530816Y-80695919D01*
X239782967Y-80591732D01*
X239976054Y-80398982D01*
X240080681Y-80147013D01*
X240080772Y-80042648D01*
X240643210Y-79480210D01*
X240753331Y-79315403D01*
X240792000Y-79121000D01*
X240792000Y-75267420D01*
X241713591Y-74345829D01*
X241816816Y-74345919D01*
X242068967Y-74241732D01*
X242262054Y-74048982D01*
X242366681Y-73797013D01*
X242366919Y-73524184D01*
X242262732Y-73272033D01*
X242069982Y-73078946D01*
X241818013Y-72974319D01*
X241545184Y-72974081D01*
X241293033Y-73078268D01*
X241099946Y-73271018D01*
X240995319Y-73522987D01*
X240995228Y-73627352D01*
X239924790Y-74697790D01*
X239814669Y-74862597D01*
X239776000Y-75057000D01*
X239776000Y-78910580D01*
X239362409Y-79324171D01*
X239259184Y-79324081D01*
X239007033Y-79428268D01*
X238813946Y-79621018D01*
X238709319Y-79872987D01*
X238709081Y-80145816D01*
X238633000Y-80145816D01*
X238633000Y-74756908D01*
X238706054Y-74683982D01*
X238810681Y-74432013D01*
X238810919Y-74159184D01*
X238706732Y-73907033D01*
X238513982Y-73713946D01*
X238262013Y-73609319D01*
X237989184Y-73609081D01*
X237737033Y-73713268D01*
X237543946Y-73906018D01*
X237439319Y-74157987D01*
X237439081Y-74430816D01*
X234785710Y-74430816D01*
X234703982Y-74348946D01*
X234452013Y-74244319D01*
X234449104Y-74244316D01*
X238072604Y-70620816D01*
X240614081Y-70620816D01*
X240718268Y-70872967D01*
X240911018Y-71066054D01*
X241162987Y-71170681D01*
X241435816Y-71170919D01*
X241687967Y-71066732D01*
X241761828Y-70993000D01*
X242359580Y-70993000D01*
X242845790Y-71479211D01*
X242845793Y-71479213D01*
X245872000Y-74505420D01*
X245872000Y-78740000D01*
X245910669Y-78934403D01*
X246020790Y-79099210D01*
X246964171Y-80042591D01*
X246964081Y-80145816D01*
X247068268Y-80397967D01*
X247261018Y-80591054D01*
X247512987Y-80695681D01*
X247785816Y-80695919D01*
X248037967Y-80591732D01*
X248231054Y-80398982D01*
X248335681Y-80147013D01*
X248335919Y-79874184D01*
X248231732Y-79622033D01*
X248038982Y-79428946D01*
X247787013Y-79324319D01*
X247682648Y-79324228D01*
X246888000Y-78529580D01*
X246888000Y-75700816D01*
X246964081Y-75700816D01*
X247068268Y-75952967D01*
X247261018Y-76146054D01*
X247512987Y-76250681D01*
X247785816Y-76250919D01*
X248037967Y-76146732D01*
X248231054Y-75953982D01*
X248335681Y-75702013D01*
X248335919Y-75429184D01*
X248231732Y-75177033D01*
X248158000Y-75103172D01*
X248158000Y-73870420D01*
X250222592Y-71805829D01*
X250325816Y-71805919D01*
X250577967Y-71701732D01*
X250771054Y-71508982D01*
X250875681Y-71257013D01*
X250875919Y-70984184D01*
X250771732Y-70732033D01*
X250578982Y-70538946D01*
X250327013Y-70434319D01*
X250054184Y-70434081D01*
X249802033Y-70538268D01*
X249608946Y-70731018D01*
X249504319Y-70982987D01*
X249504228Y-71087351D01*
X247290790Y-73300790D01*
X247180669Y-73465597D01*
X247142000Y-73660000D01*
X247142000Y-75103092D01*
X247068946Y-75176018D01*
X246964319Y-75427987D01*
X246964081Y-75700816D01*
X246888000Y-75700816D01*
X246888000Y-74295000D01*
X246849331Y-74100597D01*
X246739210Y-73935790D01*
X245193420Y-72390000D01*
X245777591Y-71805829D01*
X245880816Y-71805919D01*
X246132967Y-71701732D01*
X246326054Y-71508982D01*
X246430681Y-71257013D01*
X246430919Y-70984184D01*
X246326732Y-70732033D01*
X246133982Y-70538946D01*
X245882013Y-70434319D01*
X245609184Y-70434081D01*
X245357033Y-70538268D01*
X245163946Y-70731018D01*
X245059319Y-70982987D01*
X245059228Y-71087352D01*
X244475000Y-71671580D01*
X243564213Y-70760793D01*
X243564211Y-70760790D01*
X242929210Y-70125790D01*
X242764403Y-70015669D01*
X242570000Y-69977000D01*
X241761908Y-69977000D01*
X241688982Y-69903946D01*
X241437013Y-69799319D01*
X241164184Y-69799081D01*
X240912033Y-69903268D01*
X240718946Y-70096018D01*
X240614319Y-70347987D01*
X240614081Y-70620816D01*
X238072604Y-70620816D01*
X242294210Y-66399210D01*
X242404331Y-66234403D01*
X242443000Y-66040000D01*
X242443000Y-62056908D01*
X242516054Y-61983982D01*
X242620681Y-61732013D01*
X242620919Y-61459184D01*
X242516732Y-61207033D01*
X242323982Y-61013946D01*
X242194058Y-60959996D01*
X242322967Y-60906732D01*
X242378188Y-60851608D01*
X242697000Y-61170421D01*
X242697000Y-65405000D01*
X242735669Y-65599403D01*
X242845790Y-65764210D01*
X243480790Y-66399211D01*
X243645597Y-66509331D01*
X243840000Y-66548000D01*
X246804580Y-66548000D01*
X257302000Y-77045421D01*
X257302000Y-79375000D01*
X257340669Y-79569403D01*
X257450790Y-79734210D01*
X258720790Y-81004210D01*
X258885596Y-81114331D01*
X258917850Y-81120746D01*
X259080000Y-81153000D01*
X259111536Y-81153000D01*
X259111536Y-81495000D01*
X259138103Y-81636190D01*
X259221546Y-81765865D01*
X259348866Y-81852859D01*
X259500000Y-81883464D01*
X261200000Y-81883464D01*
X261341190Y-81856897D01*
X261470865Y-81773454D01*
X261557859Y-81646134D01*
X261588464Y-81495000D01*
X261588464Y-79795000D01*
X261561897Y-79653810D01*
X261478454Y-79524135D01*
X261351134Y-79437141D01*
X261200000Y-79406536D01*
X259500000Y-79406536D01*
X259358810Y-79433103D01*
X259229135Y-79516546D01*
X259142141Y-79643866D01*
X259111536Y-79795000D01*
X259111536Y-79958116D01*
X258318000Y-79164580D01*
X258318000Y-77151980D01*
X259160511Y-77151980D01*
X259284755Y-77451964D01*
X259601944Y-77812652D01*
X260033018Y-78024501D01*
X260223000Y-77964193D01*
X260223000Y-76962000D01*
X260477000Y-76962000D01*
X260477000Y-77964193D01*
X260666982Y-78024501D01*
X261098056Y-77812652D01*
X261415245Y-77451964D01*
X261539489Y-77151980D01*
X261478627Y-76962000D01*
X260477000Y-76962000D01*
X260223000Y-76962000D01*
X259221373Y-76962000D01*
X259160511Y-77151980D01*
X258318000Y-77151980D01*
X258318000Y-76835000D01*
X258279331Y-76640597D01*
X258279331Y-76640596D01*
X258197428Y-76518020D01*
X259160511Y-76518020D01*
X259221373Y-76708000D01*
X260223000Y-76708000D01*
X260223000Y-75705807D01*
X260477000Y-75705807D01*
X260477000Y-76708000D01*
X261478627Y-76708000D01*
X261539489Y-76518020D01*
X261415245Y-76218036D01*
X261098056Y-75857348D01*
X260666982Y-75645499D01*
X260477000Y-75705807D01*
X260223000Y-75705807D01*
X260033018Y-75645499D01*
X259601944Y-75857348D01*
X259284755Y-76218036D01*
X259160511Y-76518020D01*
X258197428Y-76518020D01*
X258169210Y-76475789D01*
X255988421Y-74295000D01*
X259094883Y-74295000D01*
X259188587Y-74766083D01*
X259455435Y-75165448D01*
X259854800Y-75432296D01*
X260325883Y-75526000D01*
X260374117Y-75526000D01*
X260845200Y-75432296D01*
X261244565Y-75165448D01*
X261511413Y-74766083D01*
X261605117Y-74295000D01*
X261511413Y-73823917D01*
X261244565Y-73424552D01*
X260845200Y-73157704D01*
X260374117Y-73064000D01*
X260325883Y-73064000D01*
X259854800Y-73157704D01*
X259455435Y-73424552D01*
X259188587Y-73823917D01*
X259094883Y-74295000D01*
X255988421Y-74295000D01*
X249500599Y-67807179D01*
X249555000Y-67818000D01*
X255219310Y-67818000D01*
X255219081Y-68080816D01*
X255323268Y-68332967D01*
X255397000Y-68406828D01*
X255397000Y-68580000D01*
X255435669Y-68774403D01*
X255545790Y-68939210D01*
X258720790Y-72114210D01*
X258885597Y-72224331D01*
X259080000Y-72263000D01*
X259111536Y-72263000D01*
X259111536Y-72605000D01*
X259138103Y-72746190D01*
X259221546Y-72875865D01*
X259348866Y-72962859D01*
X259500000Y-72993464D01*
X261200000Y-72993464D01*
X261341190Y-72966897D01*
X261470865Y-72883454D01*
X261557859Y-72756134D01*
X261588464Y-72605000D01*
X261588464Y-70905000D01*
X261561897Y-70763810D01*
X261478454Y-70634135D01*
X261351134Y-70547141D01*
X261200000Y-70516536D01*
X259500000Y-70516536D01*
X259358810Y-70543103D01*
X259229135Y-70626546D01*
X259142141Y-70753866D01*
X259111536Y-70905000D01*
X259111536Y-71068116D01*
X256431681Y-68388261D01*
X256486054Y-68333982D01*
X256515951Y-68261980D01*
X259160511Y-68261980D01*
X259284755Y-68561964D01*
X259601944Y-68922652D01*
X260033018Y-69134501D01*
X260223000Y-69074193D01*
X260223000Y-68072000D01*
X260477000Y-68072000D01*
X260477000Y-69074193D01*
X260666982Y-69134501D01*
X261098056Y-68922652D01*
X261415245Y-68561964D01*
X261539489Y-68261980D01*
X261478627Y-68072000D01*
X260477000Y-68072000D01*
X260223000Y-68072000D01*
X259221373Y-68072000D01*
X259160511Y-68261980D01*
X256515951Y-68261980D01*
X256590681Y-68082013D01*
X256590919Y-67809184D01*
X256516064Y-67628020D01*
X259160511Y-67628020D01*
X259221373Y-67818000D01*
X260223000Y-67818000D01*
X260223000Y-66815807D01*
X260477000Y-66815807D01*
X260477000Y-67818000D01*
X261478627Y-67818000D01*
X261539489Y-67628020D01*
X261415245Y-67328036D01*
X261098056Y-66967348D01*
X260666982Y-66755499D01*
X260477000Y-66815807D01*
X260223000Y-66815807D01*
X260033018Y-66755499D01*
X259601944Y-66967348D01*
X259284755Y-67328036D01*
X259160511Y-67628020D01*
X256516064Y-67628020D01*
X256486732Y-67557033D01*
X256431608Y-67501812D01*
X258528420Y-65405000D01*
X259094883Y-65405000D01*
X259188587Y-65876083D01*
X259455435Y-66275448D01*
X259854800Y-66542296D01*
X260325883Y-66636000D01*
X260374117Y-66636000D01*
X260845200Y-66542296D01*
X261244565Y-66275448D01*
X261511413Y-65876083D01*
X261605117Y-65405000D01*
X261511413Y-64933917D01*
X261244565Y-64534552D01*
X260845200Y-64267704D01*
X260374117Y-64174000D01*
X260325883Y-64174000D01*
X259854800Y-64267704D01*
X259455435Y-64534552D01*
X259188587Y-64933917D01*
X259094883Y-65405000D01*
X258528420Y-65405000D01*
X259829956Y-64103464D01*
X261200000Y-64103464D01*
X261341190Y-64076897D01*
X261470865Y-63993454D01*
X261557859Y-63866134D01*
X261588464Y-63715000D01*
X261588464Y-62015000D01*
X261561897Y-61873810D01*
X261478454Y-61744135D01*
X261351134Y-61657141D01*
X261200000Y-61626536D01*
X259500000Y-61626536D01*
X259358810Y-61653103D01*
X259229135Y-61736546D01*
X259142141Y-61863866D01*
X259111536Y-62015000D01*
X259111536Y-63385044D01*
X255694580Y-66802000D01*
X249765420Y-66802000D01*
X248009210Y-65045790D01*
X247844403Y-64935669D01*
X247650000Y-64897000D01*
X244685421Y-64897000D01*
X244348000Y-64559580D01*
X244348000Y-62056908D01*
X244421054Y-61983982D01*
X244525681Y-61732013D01*
X244525919Y-61459184D01*
X244421732Y-61207033D01*
X244228982Y-61013946D01*
X243977013Y-60909319D01*
X243704184Y-60909081D01*
X243702971Y-60909582D01*
X243674331Y-60765597D01*
X243619950Y-60684210D01*
X243564211Y-60600790D01*
X242929210Y-59965790D01*
X242764403Y-59855669D01*
X242570000Y-59817000D01*
X242396908Y-59817000D01*
X242323982Y-59743946D01*
X242072013Y-59639319D01*
X241799184Y-59639081D01*
X241547033Y-59743268D01*
X241353946Y-59936018D01*
X241249319Y-60187987D01*
X241249081Y-60460816D01*
X241353268Y-60712967D01*
X241546018Y-60906054D01*
X241675942Y-60960004D01*
X241547033Y-61013268D01*
X241353946Y-61206018D01*
X241249319Y-61457987D01*
X241249081Y-61730816D01*
X241353268Y-61982967D01*
X241427000Y-62056828D01*
X241427000Y-63449310D01*
X241164184Y-63449081D01*
X240912033Y-63553268D01*
X240718946Y-63746018D01*
X240614319Y-63997987D01*
X240614228Y-64102352D01*
X240454580Y-64262000D01*
X235160421Y-64262000D01*
X234841681Y-63943260D01*
X234896054Y-63888982D01*
X235000681Y-63637013D01*
X235000919Y-63364184D01*
X234896732Y-63112033D01*
X234703982Y-62918946D01*
X234452013Y-62814319D01*
X234179184Y-62814081D01*
X233927033Y-62918268D01*
X233733946Y-63111018D01*
X233629319Y-63362987D01*
X233629081Y-63635816D01*
X233733268Y-63887967D01*
X233807000Y-63961828D01*
X233807000Y-64135000D01*
X233845669Y-64329403D01*
X233955790Y-64494210D01*
X234590790Y-65129211D01*
X234755597Y-65239331D01*
X234950000Y-65278000D01*
X238549580Y-65278000D01*
X239344171Y-66072591D01*
X239344081Y-66175816D01*
X239448268Y-66427967D01*
X239641018Y-66621054D01*
X239892987Y-66725681D01*
X240165816Y-66725919D01*
X240417967Y-66621732D01*
X240611054Y-66428982D01*
X240715681Y-66177013D01*
X240715919Y-65904184D01*
X240611732Y-65652033D01*
X240418982Y-65458946D01*
X240167013Y-65354319D01*
X240062648Y-65354228D01*
X239986420Y-65278000D01*
X240665000Y-65278000D01*
X240859403Y-65239331D01*
X241024210Y-65129210D01*
X241332592Y-64820829D01*
X241427000Y-64820911D01*
X241427000Y-65829580D01*
X233469580Y-73787000D01*
X232410000Y-73787000D01*
X232215597Y-73825669D01*
X232050790Y-73935789D01*
X231742408Y-74244171D01*
X231639184Y-74244081D01*
X231387033Y-74348268D01*
X231193946Y-74541018D01*
X231089319Y-74792987D01*
X231089081Y-75065816D01*
X231193268Y-75317967D01*
X231386018Y-75511054D01*
X231637987Y-75615681D01*
X231640896Y-75615684D01*
X227754580Y-79502000D01*
X223520000Y-79502000D01*
X223357850Y-79534254D01*
X223325596Y-79540669D01*
X223160790Y-79650790D01*
X222217409Y-80594171D01*
X222114184Y-80594081D01*
X221862033Y-80698268D01*
X221668946Y-80891018D01*
X221564319Y-81142987D01*
X221564081Y-81415816D01*
X217244604Y-81415816D01*
X220250592Y-78409829D01*
X220353816Y-78409919D01*
X220605967Y-78305732D01*
X220799054Y-78112982D01*
X220903681Y-77861013D01*
X220903919Y-77588184D01*
X220799732Y-77336033D01*
X220606982Y-77142946D01*
X220355013Y-77038319D01*
X220082184Y-77038081D01*
X219830033Y-77142268D01*
X219636946Y-77335018D01*
X219532319Y-77586987D01*
X219532228Y-77691351D01*
X216726230Y-80497350D01*
X216667565Y-80409552D01*
X216268200Y-80142704D01*
X215797117Y-80049000D01*
X215748883Y-80049000D01*
X215277800Y-80142704D01*
X214878435Y-80409552D01*
X214611587Y-80808917D01*
X214517883Y-81280000D01*
X212344000Y-81280000D01*
X212344000Y-78158708D01*
X212465435Y-78340448D01*
X212864800Y-78607296D01*
X213335883Y-78701000D01*
X213384117Y-78701000D01*
X213855200Y-78607296D01*
X214254565Y-78340448D01*
X214521413Y-77941083D01*
X214615117Y-77470000D01*
X214521413Y-76998917D01*
X214254565Y-76599552D01*
X213855200Y-76332704D01*
X213384117Y-76239000D01*
X213335883Y-76239000D01*
X212864800Y-76332704D01*
X212465435Y-76599552D01*
X212344000Y-76781292D01*
X212344000Y-75618708D01*
X212465435Y-75800448D01*
X212864800Y-76067296D01*
X213335883Y-76161000D01*
X213384117Y-76161000D01*
X213855200Y-76067296D01*
X214254565Y-75800448D01*
X214521413Y-75401083D01*
X214615117Y-74930000D01*
X214526073Y-74482347D01*
X214840420Y-74168000D01*
X214932972Y-74168000D01*
X214738587Y-74458917D01*
X214644883Y-74930000D01*
X214738587Y-75401083D01*
X215005435Y-75800448D01*
X215404800Y-76067296D01*
X215875883Y-76161000D01*
X215924117Y-76161000D01*
X216331539Y-76079959D01*
X216483116Y-76231536D01*
X215050000Y-76231536D01*
X214908810Y-76258103D01*
X214779135Y-76341546D01*
X214692141Y-76468866D01*
X214661536Y-76620000D01*
X214661536Y-78320000D01*
X214688103Y-78461190D01*
X214771546Y-78590865D01*
X214898866Y-78677859D01*
X215050000Y-78708464D01*
X215082274Y-78708464D01*
X214877033Y-78793268D01*
X214683946Y-78986018D01*
X214579319Y-79237987D01*
X214579081Y-79510816D01*
X214683268Y-79762967D01*
X214876018Y-79956054D01*
X215127987Y-80060681D01*
X215400816Y-80060919D01*
X215652967Y-79956732D01*
X215726828Y-79883000D01*
X216535000Y-79883000D01*
X216729403Y-79844331D01*
X216894210Y-79734210D01*
X218164210Y-78464210D01*
X218274331Y-78299404D01*
X218287738Y-78232000D01*
X218313000Y-78105000D01*
X218313000Y-76843816D01*
X224866081Y-76843816D01*
X224970268Y-77095967D01*
X225163018Y-77289054D01*
X225414987Y-77393681D01*
X225687816Y-77393919D01*
X225939967Y-77289732D01*
X226133054Y-77096982D01*
X226237681Y-76845013D01*
X226237772Y-76740648D01*
X230229210Y-72749210D01*
X230339331Y-72584404D01*
X230378000Y-72390000D01*
X230378000Y-71581908D01*
X230451054Y-71508982D01*
X230555681Y-71257013D01*
X230555919Y-70984184D01*
X230451732Y-70732033D01*
X230258982Y-70538946D01*
X230007013Y-70434319D01*
X229734184Y-70434081D01*
X229482033Y-70538268D01*
X229288946Y-70731018D01*
X229184319Y-70982987D01*
X229184081Y-71255816D01*
X229288268Y-71507967D01*
X229362000Y-71581828D01*
X229362000Y-72179580D01*
X225519409Y-76022171D01*
X225416184Y-76022081D01*
X225164033Y-76126268D01*
X224970946Y-76319018D01*
X224866319Y-76570987D01*
X224866081Y-76843816D01*
X218313000Y-76843816D01*
X218313000Y-76835000D01*
X218274331Y-76640597D01*
X218164210Y-76475790D01*
X217066073Y-75377653D01*
X217155117Y-74930000D01*
X217061413Y-74458917D01*
X216867028Y-74168000D01*
X218864580Y-74168000D01*
X220620790Y-75924210D01*
X220785597Y-76034331D01*
X220980000Y-76073000D01*
X223520000Y-76073000D01*
X223714403Y-76034331D01*
X223879210Y-75924210D01*
X229445421Y-70358000D01*
X230929580Y-70358000D01*
X231089171Y-70517592D01*
X231089081Y-70620816D01*
X231193268Y-70872967D01*
X231386018Y-71066054D01*
X231637987Y-71170681D01*
X231910816Y-71170919D01*
X232162967Y-71066732D01*
X232356054Y-70873982D01*
X232460681Y-70622013D01*
X232460919Y-70349184D01*
X232356732Y-70097033D01*
X232163982Y-69903946D01*
X231912013Y-69799319D01*
X231807648Y-69799228D01*
X231499210Y-69490790D01*
X231334403Y-69380669D01*
X231140000Y-69342000D01*
X229235000Y-69342000D01*
X229180600Y-69352821D01*
X229267592Y-69265829D01*
X229370816Y-69265919D01*
X229622967Y-69161732D01*
X229816054Y-68968982D01*
X229920681Y-68717013D01*
X229920919Y-68444184D01*
X229842869Y-68255289D01*
X229946171Y-68358591D01*
X229946081Y-68461816D01*
X230050268Y-68713967D01*
X230243018Y-68907054D01*
X230494987Y-69011681D01*
X230767816Y-69011919D01*
X231019967Y-68907732D01*
X231213054Y-68714982D01*
X231317681Y-68463013D01*
X231317919Y-68190184D01*
X231213732Y-67938033D01*
X231020982Y-67744946D01*
X230769013Y-67640319D01*
X230664648Y-67640228D01*
X230229210Y-67204790D01*
X230064403Y-67094669D01*
X229870000Y-67056000D01*
X230424092Y-67056000D01*
X230497018Y-67129054D01*
X230748987Y-67233681D01*
X231021816Y-67233919D01*
X231273967Y-67129732D01*
X231467054Y-66936982D01*
X231571681Y-66685013D01*
X231571919Y-66412184D01*
X231467732Y-66160033D01*
X231274982Y-65966946D01*
X231023013Y-65862319D01*
X230750184Y-65862081D01*
X230498033Y-65966268D01*
X230424172Y-66040000D01*
X228048421Y-66040000D01*
X224374237Y-62365816D01*
X231089081Y-62365816D01*
X231193268Y-62617967D01*
X231386018Y-62811054D01*
X231637987Y-62915681D01*
X231910816Y-62915919D01*
X232162967Y-62811732D01*
X232236828Y-62738000D01*
X237663092Y-62738000D01*
X237736018Y-62811054D01*
X237987987Y-62915681D01*
X238260816Y-62915919D01*
X238512967Y-62811732D01*
X238706054Y-62618982D01*
X238810681Y-62367013D01*
X238810919Y-62094184D01*
X238706732Y-61842033D01*
X238513982Y-61648946D01*
X238262013Y-61544319D01*
X237989184Y-61544081D01*
X237737033Y-61648268D01*
X237663172Y-61722000D01*
X232236908Y-61722000D01*
X232163982Y-61648946D01*
X231912013Y-61544319D01*
X231639184Y-61544081D01*
X231387033Y-61648268D01*
X231193946Y-61841018D01*
X231089319Y-62092987D01*
X231089081Y-62365816D01*
X224374237Y-62365816D01*
X223774000Y-61765580D01*
X223774000Y-59944000D01*
X223735331Y-59749597D01*
X223735331Y-59749596D01*
X223625210Y-59584790D01*
X222681829Y-58641409D01*
X222681919Y-58538184D01*
X222577732Y-58286033D01*
X222384982Y-58092946D01*
X222133013Y-57988319D01*
X221860184Y-57988081D01*
X221608033Y-58092268D01*
X221414946Y-58285018D01*
X221310319Y-58536987D01*
X221310081Y-58809816D01*
X221414268Y-59061967D01*
X221607018Y-59255054D01*
X221858987Y-59359681D01*
X221963352Y-59359772D01*
X222758000Y-60154420D01*
X222758000Y-61976000D01*
X222796669Y-62170403D01*
X222906790Y-62335210D01*
X227478789Y-66907210D01*
X227537211Y-66946247D01*
X227450033Y-66982268D01*
X227256946Y-67175018D01*
X227152319Y-67426987D01*
X227152081Y-67699816D01*
X227256268Y-67951967D01*
X227449018Y-68145054D01*
X227700987Y-68249681D01*
X227973816Y-68249919D01*
X228225967Y-68145732D01*
X228299828Y-68072000D01*
X228773172Y-68072000D01*
X228653946Y-68191018D01*
X228549319Y-68442987D01*
X228549228Y-68547351D01*
X223487409Y-73609171D01*
X223384184Y-73609081D01*
X223132033Y-73713268D01*
X222938946Y-73906018D01*
X222834319Y-74157987D01*
X222834081Y-74430816D01*
X222938268Y-74682967D01*
X223131018Y-74876054D01*
X223382987Y-74980681D01*
X223385896Y-74980684D01*
X223309580Y-75057000D01*
X221190420Y-75057000D01*
X219434210Y-73300790D01*
X219269403Y-73190669D01*
X219075000Y-73152000D01*
X216867028Y-73152000D01*
X217061413Y-72861083D01*
X217155117Y-72390000D01*
X217061413Y-71918917D01*
X216794565Y-71519552D01*
X216395200Y-71252704D01*
X215924117Y-71159000D01*
X215875883Y-71159000D01*
X215404800Y-71252704D01*
X215005435Y-71519552D01*
X214738587Y-71918917D01*
X214644883Y-72390000D01*
X214738587Y-72861083D01*
X214932972Y-73152000D01*
X214630000Y-73152000D01*
X214467850Y-73184254D01*
X214435596Y-73190669D01*
X214270790Y-73300790D01*
X213791539Y-73780041D01*
X213384117Y-73699000D01*
X213335883Y-73699000D01*
X212864800Y-73792704D01*
X212465435Y-74059552D01*
X212344000Y-74241292D01*
X212344000Y-73062962D01*
X212611944Y-73367652D01*
X213043018Y-73579501D01*
X213233000Y-73519193D01*
X213233000Y-72517000D01*
X213487000Y-72517000D01*
X213487000Y-73519193D01*
X213676982Y-73579501D01*
X214108056Y-73367652D01*
X214425245Y-73006964D01*
X214549489Y-72706980D01*
X214488627Y-72517000D01*
X213487000Y-72517000D01*
X213233000Y-72517000D01*
X213213000Y-72517000D01*
X213213000Y-72263000D01*
X213233000Y-72263000D01*
X213233000Y-71260807D01*
X213487000Y-71260807D01*
X213487000Y-72263000D01*
X214488627Y-72263000D01*
X214549489Y-72073020D01*
X214425245Y-71773036D01*
X214108056Y-71412348D01*
X213676982Y-71200499D01*
X213487000Y-71260807D01*
X213233000Y-71260807D01*
X213043018Y-71200499D01*
X212611944Y-71412348D01*
X212344000Y-71717038D01*
X212344000Y-70747816D01*
X218008081Y-70747816D01*
X218112268Y-70999967D01*
X218305018Y-71193054D01*
X218556987Y-71297681D01*
X218829816Y-71297919D01*
X219081967Y-71193732D01*
X219275054Y-71000982D01*
X219379681Y-70749013D01*
X219379772Y-70644648D01*
X223397983Y-66626438D01*
X223636987Y-66725681D01*
X223909816Y-66725919D01*
X224161967Y-66621732D01*
X224355054Y-66428982D01*
X224459681Y-66177013D01*
X224459919Y-65904184D01*
X224355732Y-65652033D01*
X224162982Y-65458946D01*
X223911013Y-65354319D01*
X223638184Y-65354081D01*
X223386033Y-65458268D01*
X223312172Y-65532000D01*
X223266000Y-65532000D01*
X223103850Y-65564254D01*
X223071596Y-65570669D01*
X222906789Y-65680790D01*
X218661409Y-69926171D01*
X218558184Y-69926081D01*
X218306033Y-70030268D01*
X218112946Y-70223018D01*
X218008319Y-70474987D01*
X218008081Y-70747816D01*
X212344000Y-70747816D01*
X212344000Y-70060420D01*
X212630591Y-69773829D01*
X212733816Y-69773919D01*
X212985967Y-69669732D01*
X213179054Y-69476982D01*
X213283681Y-69225013D01*
X213283919Y-68952184D01*
X213221968Y-68802250D01*
X214542000Y-68802250D01*
X214542000Y-69505785D01*
X214600004Y-69645819D01*
X214707180Y-69752996D01*
X214847214Y-69811000D01*
X215550750Y-69811000D01*
X215646000Y-69715750D01*
X215646000Y-68707000D01*
X215900000Y-68707000D01*
X215900000Y-69715750D01*
X215995250Y-69811000D01*
X216698786Y-69811000D01*
X216838820Y-69752996D01*
X216945996Y-69645819D01*
X217004000Y-69505785D01*
X217004000Y-68802250D01*
X216908750Y-68707000D01*
X215900000Y-68707000D01*
X215646000Y-68707000D01*
X214637250Y-68707000D01*
X214542000Y-68802250D01*
X213221968Y-68802250D01*
X213179732Y-68700033D01*
X212986982Y-68506946D01*
X212735013Y-68402319D01*
X212462184Y-68402081D01*
X212210033Y-68506268D01*
X212016946Y-68699018D01*
X211912319Y-68950987D01*
X211912228Y-69055352D01*
X211476790Y-69490790D01*
X211366669Y-69655597D01*
X211328000Y-69850000D01*
X209931000Y-69850000D01*
X209931000Y-67654215D01*
X214542000Y-67654215D01*
X214542000Y-68357750D01*
X214637250Y-68453000D01*
X215646000Y-68453000D01*
X215646000Y-67444250D01*
X215900000Y-67444250D01*
X215900000Y-68453000D01*
X216908750Y-68453000D01*
X217004000Y-68357750D01*
X217004000Y-67654215D01*
X216945996Y-67514181D01*
X216838820Y-67407004D01*
X216698786Y-67349000D01*
X215995250Y-67349000D01*
X215900000Y-67444250D01*
X215646000Y-67444250D01*
X215550750Y-67349000D01*
X214847214Y-67349000D01*
X214707180Y-67407004D01*
X214600004Y-67514181D01*
X214542000Y-67654215D01*
X209931000Y-67654215D01*
X209931000Y-66040000D01*
X214517883Y-66040000D01*
X214611587Y-66511083D01*
X214878435Y-66910448D01*
X215277800Y-67177296D01*
X215748883Y-67271000D01*
X215797117Y-67271000D01*
X216268200Y-67177296D01*
X216667565Y-66910448D01*
X216934413Y-66511083D01*
X217028117Y-66040000D01*
X216934413Y-65568917D01*
X216667565Y-65169552D01*
X216268200Y-64902704D01*
X215797117Y-64809000D01*
X215748883Y-64809000D01*
X215277800Y-64902704D01*
X214878435Y-65169552D01*
X214611587Y-65568917D01*
X214517883Y-66040000D01*
X209931000Y-66040000D01*
X209931000Y-63500000D01*
X214517883Y-63500000D01*
X214611587Y-63971083D01*
X214878435Y-64370448D01*
X215277800Y-64637296D01*
X215748883Y-64731000D01*
X215797117Y-64731000D01*
X216268200Y-64637296D01*
X216667565Y-64370448D01*
X216909746Y-64008000D01*
X218948000Y-64008000D01*
X219142403Y-63969331D01*
X219307210Y-63859210D01*
X220758591Y-62407829D01*
X220861816Y-62407919D01*
X221113967Y-62303732D01*
X221307054Y-62110982D01*
X221411681Y-61859013D01*
X221411919Y-61586184D01*
X221307732Y-61334033D01*
X221114982Y-61140946D01*
X220863013Y-61036319D01*
X220590184Y-61036081D01*
X220338033Y-61140268D01*
X220144946Y-61333018D01*
X220040319Y-61584987D01*
X220040228Y-61689352D01*
X218737580Y-62992000D01*
X216909746Y-62992000D01*
X216667565Y-62629552D01*
X216268200Y-62362704D01*
X215797117Y-62269000D01*
X215748883Y-62269000D01*
X215277800Y-62362704D01*
X214878435Y-62629552D01*
X214611587Y-63028917D01*
X214517883Y-63500000D01*
X209931000Y-63500000D01*
X209931000Y-59277250D01*
X214415000Y-59277250D01*
X214415000Y-59980785D01*
X214473004Y-60120819D01*
X214580180Y-60227996D01*
X214720214Y-60286000D01*
X215423750Y-60286000D01*
X215519000Y-60190750D01*
X215519000Y-59182000D01*
X215773000Y-59182000D01*
X215773000Y-60190750D01*
X215868250Y-60286000D01*
X216571786Y-60286000D01*
X216711820Y-60227996D01*
X216818996Y-60120819D01*
X216877000Y-59980785D01*
X216877000Y-59277250D01*
X216781750Y-59182000D01*
X215773000Y-59182000D01*
X215519000Y-59182000D01*
X214510250Y-59182000D01*
X214415000Y-59277250D01*
X209931000Y-59277250D01*
X209931000Y-58129215D01*
X214415000Y-58129215D01*
X214415000Y-58832750D01*
X214510250Y-58928000D01*
X215519000Y-58928000D01*
X215519000Y-57919250D01*
X215773000Y-57919250D01*
X215773000Y-58928000D01*
X216781750Y-58928000D01*
X216877000Y-58832750D01*
X216877000Y-58129215D01*
X216818996Y-57989181D01*
X216711820Y-57882004D01*
X216571786Y-57824000D01*
X215868250Y-57824000D01*
X215773000Y-57919250D01*
X215519000Y-57919250D01*
X215423750Y-57824000D01*
X214720214Y-57824000D01*
X214580180Y-57882004D01*
X214473004Y-57989181D01*
X214415000Y-58129215D01*
X209931000Y-58129215D01*
X209931000Y-56515000D01*
X214390883Y-56515000D01*
X214484587Y-56986083D01*
X214751435Y-57385448D01*
X215150800Y-57652296D01*
X215621883Y-57746000D01*
X215670117Y-57746000D01*
X216141200Y-57652296D01*
X216540565Y-57385448D01*
X216807413Y-56986083D01*
X216874101Y-56650816D01*
X241249081Y-56650816D01*
X241353268Y-56902967D01*
X241546018Y-57096054D01*
X241797987Y-57200681D01*
X242070816Y-57200919D01*
X242322967Y-57096732D01*
X242516054Y-56903982D01*
X242620681Y-56652013D01*
X242620772Y-56547648D01*
X244685421Y-54483000D01*
X252773580Y-54483000D01*
X249979580Y-57277000D01*
X247476908Y-57277000D01*
X247403982Y-57203946D01*
X247152013Y-57099319D01*
X246879184Y-57099081D01*
X246627033Y-57203268D01*
X246433946Y-57396018D01*
X246329319Y-57647987D01*
X246329081Y-57920816D01*
X246433268Y-58172967D01*
X246626018Y-58366054D01*
X246877987Y-58470681D01*
X247150816Y-58470919D01*
X247402967Y-58366732D01*
X247476828Y-58293000D01*
X250190000Y-58293000D01*
X250384403Y-58254331D01*
X250549210Y-58144210D01*
X253575420Y-55118000D01*
X254173092Y-55118000D01*
X254246018Y-55191054D01*
X254497987Y-55295681D01*
X254770816Y-55295919D01*
X255022967Y-55191732D01*
X255216054Y-54998982D01*
X255320681Y-54747013D01*
X255320684Y-54744104D01*
X255397000Y-54820421D01*
X255397000Y-64943092D01*
X255323946Y-65016018D01*
X255219319Y-65267987D01*
X255219081Y-65540816D01*
X255323268Y-65792967D01*
X255516018Y-65986054D01*
X255767987Y-66090681D01*
X256040816Y-66090919D01*
X256292967Y-65986732D01*
X256486054Y-65793982D01*
X256590681Y-65542013D01*
X256590919Y-65269184D01*
X256486732Y-65017033D01*
X256413000Y-64943172D01*
X256413000Y-59371980D01*
X259160511Y-59371980D01*
X259284755Y-59671964D01*
X259601944Y-60032652D01*
X260033018Y-60244501D01*
X260223000Y-60184193D01*
X260223000Y-59182000D01*
X260477000Y-59182000D01*
X260477000Y-60184193D01*
X260666982Y-60244501D01*
X261098056Y-60032652D01*
X261415245Y-59671964D01*
X261539489Y-59371980D01*
X261478627Y-59182000D01*
X260477000Y-59182000D01*
X260223000Y-59182000D01*
X259221373Y-59182000D01*
X259160511Y-59371980D01*
X256413000Y-59371980D01*
X256413000Y-58738020D01*
X259160511Y-58738020D01*
X259221373Y-58928000D01*
X260223000Y-58928000D01*
X260223000Y-57925807D01*
X260477000Y-57925807D01*
X260477000Y-58928000D01*
X261478627Y-58928000D01*
X261539489Y-58738020D01*
X261415245Y-58438036D01*
X261098056Y-58077348D01*
X260666982Y-57865499D01*
X260477000Y-57925807D01*
X260223000Y-57925807D01*
X260033018Y-57865499D01*
X259601944Y-58077348D01*
X259284755Y-58438036D01*
X259160511Y-58738020D01*
X256413000Y-58738020D01*
X256413000Y-56515000D01*
X259094883Y-56515000D01*
X259188587Y-56986083D01*
X259455435Y-57385448D01*
X259854800Y-57652296D01*
X260325883Y-57746000D01*
X260374117Y-57746000D01*
X260845200Y-57652296D01*
X261244565Y-57385448D01*
X261511413Y-56986083D01*
X261605117Y-56515000D01*
X261511413Y-56043917D01*
X261244565Y-55644552D01*
X260845200Y-55377704D01*
X260374117Y-55284000D01*
X260325883Y-55284000D01*
X259854800Y-55377704D01*
X259455435Y-55644552D01*
X259188587Y-56043917D01*
X259094883Y-56515000D01*
X256413000Y-56515000D01*
X256413000Y-54610000D01*
X256374331Y-54415597D01*
X256264211Y-54250790D01*
X255629210Y-53615790D01*
X255464403Y-53505669D01*
X255270000Y-53467000D01*
X244475000Y-53467000D01*
X244280597Y-53505669D01*
X244280595Y-53505670D01*
X244280596Y-53505670D01*
X244115789Y-53615790D01*
X241902409Y-55829171D01*
X241799184Y-55829081D01*
X241547033Y-55933268D01*
X241353946Y-56126018D01*
X241249319Y-56377987D01*
X241249081Y-56650816D01*
X216874101Y-56650816D01*
X216901117Y-56515000D01*
X216807413Y-56043917D01*
X216540565Y-55644552D01*
X216141200Y-55377704D01*
X215670117Y-55284000D01*
X215621883Y-55284000D01*
X215150800Y-55377704D01*
X214751435Y-55644552D01*
X214484587Y-56043917D01*
X214390883Y-56515000D01*
X209931000Y-56515000D01*
X209931000Y-53975000D01*
X214390883Y-53975000D01*
X214484587Y-54446083D01*
X214751435Y-54845448D01*
X215150800Y-55112296D01*
X215621883Y-55206000D01*
X215670117Y-55206000D01*
X216141200Y-55112296D01*
X216540565Y-54845448D01*
X216782746Y-54483000D01*
X220388580Y-54483000D01*
X221310171Y-55404591D01*
X221310081Y-55507816D01*
X221414268Y-55759967D01*
X221607018Y-55953054D01*
X221858987Y-56057681D01*
X222131816Y-56057919D01*
X222383967Y-55953732D01*
X222577054Y-55760982D01*
X222681681Y-55509013D01*
X222681919Y-55236184D01*
X222577732Y-54984033D01*
X222384982Y-54790946D01*
X222133013Y-54686319D01*
X222028648Y-54686228D01*
X220958210Y-53615790D01*
X220793403Y-53505669D01*
X220599000Y-53467000D01*
X216782746Y-53467000D01*
X216554228Y-53125000D01*
X259111536Y-53125000D01*
X259111536Y-54825000D01*
X259138103Y-54966190D01*
X259221546Y-55095865D01*
X259348866Y-55182859D01*
X259500000Y-55213464D01*
X261200000Y-55213464D01*
X261341190Y-55186897D01*
X261470865Y-55103454D01*
X261557859Y-54976134D01*
X261588464Y-54825000D01*
X261588464Y-53125000D01*
X261561897Y-52983810D01*
X261478454Y-52854135D01*
X261351134Y-52767141D01*
X261200000Y-52736536D01*
X259500000Y-52736536D01*
X259358810Y-52763103D01*
X259229135Y-52846546D01*
X259142141Y-52973866D01*
X259111536Y-53125000D01*
X216554228Y-53125000D01*
X216540565Y-53104552D01*
X216141200Y-52837704D01*
X215670117Y-52744000D01*
X215621883Y-52744000D01*
X215150800Y-52837704D01*
X214751435Y-53104552D01*
X214484587Y-53503917D01*
X214390883Y-53975000D01*
X209931000Y-53975000D01*
X209931000Y-50927000D01*
X263271000Y-50927000D01*
X263271000Y-98425000D01*
M02*
