M48
;DRILL file {KiCad 4.0.7} date 08/08/18 22:49:22
;FORMAT={-:-/ absolute / metric / decimal}
FMAT,2
METRIC,TZ
T1C0.400
T2C1.000
%
G90
G05
M71
T1
X212.09Y-87.122
X212.598Y-69.088
X213.36Y-70.485
X215.265Y-79.375
X218.694Y-70.612
X219.71Y-57.785
X219.71Y-64.77
X219.71Y-84.455
X220.218Y-77.724
X220.726Y-61.722
X221.615Y-66.04
X221.996Y-55.372
X221.996Y-58.674
X222.25Y-81.28
X223.012Y-82.296
X223.52Y-74.295
X223.774Y-66.04
X225.552Y-60.198
X225.552Y-76.708
X226.822Y-82.296
X227.076Y-68.834
X227.838Y-67.564
X229.235Y-68.58
X229.616Y-80.264
X229.87Y-71.12
X230.632Y-68.326
X230.886Y-66.548
X231.775Y-62.23
X231.775Y-70.485
X231.775Y-74.93
X231.775Y-87.63
X232.41Y-69.215
X232.41Y-75.565
X234.315Y-63.5
X234.315Y-74.93
X234.95Y-87.63
X237.363Y-59.69
X238.125Y-62.23
X238.125Y-74.295
X238.76Y-83.185
X239.395Y-80.01
X240.03Y-66.04
X240.665Y-82.55
X241.3Y-64.135
X241.3Y-70.485
X241.681Y-73.66
X241.935Y-56.515
X241.935Y-60.325
X241.935Y-61.595
X241.935Y-75.565
X243.84Y-61.595
X244.475Y-79.375
X244.475Y-80.645
X245.745Y-71.12
X247.015Y-55.245
X247.015Y-57.785
X247.65Y-75.565
X247.65Y-80.01
X248.285Y-59.055
X249.936Y-88.392
X250.19Y-71.12
X251.079Y-75.057
X251.206Y-86.614
X254.635Y-54.61
X254.762Y-83.058
X255.905Y-65.405
X255.905Y-67.945
X256.286Y-81.026
T2
X213.36Y-72.39
X213.36Y-74.93
X213.36Y-77.47
X215.646Y-53.975
X215.646Y-56.515
X215.646Y-59.055
X215.773Y-63.5
X215.773Y-66.04
X215.773Y-68.58
X215.773Y-81.28
X215.773Y-83.82
X215.773Y-86.36
X215.9Y-72.39
X215.9Y-74.93
X215.9Y-77.47
X215.9Y-90.17
X215.9Y-92.71
X215.9Y-95.25
X260.35Y-53.975
X260.35Y-56.515
X260.35Y-59.055
X260.35Y-62.865
X260.35Y-65.405
X260.35Y-67.945
X260.35Y-71.755
X260.35Y-74.295
X260.35Y-76.835
X260.35Y-80.645
X260.35Y-83.185
X260.35Y-85.725
T0
M30
