M48
;DRILL file {KiCad 4.0.7} date Monday, May 28, 2018 'PMt' 09:48:30 PM
;FORMAT={-:-/ absolute / inch / decimal}
FMAT,2
INCH,TZ
T1C0.016
T2C0.039
%
G90
G05
M72
T1
X8.4Y-2.775
X8.475Y-3.125
X8.6Y-3.2
X8.65Y-2.275
X8.65Y-2.55
X8.65Y-3.
X8.65Y-3.325
X8.675Y-3.2
X8.7Y-3.15
X8.725Y-2.6
X8.775Y-3.1
X8.775Y-3.75
X8.8Y-2.625
X8.8Y-2.8
X8.8Y-2.925
X8.8Y-3.2
X8.825Y-2.175
X8.825Y-3.025
X8.85Y-2.3
X8.875Y-2.225
X8.875Y-2.4
X8.9Y-3.
X8.95Y-2.725
X8.95Y-3.425
X9.Y-3.275
X9.025Y-2.7
X9.025Y-2.8
X9.025Y-3.025
X9.025Y-3.35
X9.075Y-2.425
X9.075Y-3.625
X9.1Y-2.6
X9.125Y-2.45
X9.125Y-2.775
X9.125Y-2.95
X9.125Y-3.45
X9.15Y-2.725
X9.15Y-2.975
X9.225Y-2.5
X9.225Y-2.95
X9.25Y-2.4
X9.25Y-3.45
X9.375Y-2.45
X9.375Y-2.925
X9.4Y-3.275
X9.425Y-3.15
X9.45Y-2.6
X9.45Y-2.925
X9.475Y-3.25
X9.5Y-2.525
X9.5Y-2.775
X9.525Y-2.225
X9.525Y-2.375
X9.525Y-2.425
X9.525Y-2.975
X9.6Y-2.425
X9.625Y-3.125
X9.625Y-3.175
X9.675Y-2.8
X9.725Y-2.175
X9.725Y-2.275
X9.75Y-2.975
X9.75Y-3.15
X9.75Y-3.475
X9.775Y-2.325
X9.775Y-3.3
X9.8Y-3.075
X9.8Y-3.2
X9.85Y-2.8
X9.875Y-3.375
X9.925Y-3.25
X9.925Y-3.45
X10.Y-3.1
X10.025Y-2.15
X10.075Y-2.575
X10.075Y-2.675
X10.075Y-3.45
X10.2Y-3.45
X10.275Y-3.45
T2
X8.4Y-2.85
X8.4Y-2.95
X8.4Y-3.05
X8.5Y-2.125
X8.5Y-2.225
X8.5Y-2.325
X8.5Y-2.5
X8.5Y-2.6
X8.5Y-2.7
X8.5Y-2.85
X8.5Y-2.95
X8.5Y-3.05
X8.5Y-3.2
X8.5Y-3.3
X8.5Y-3.4
X8.5Y-3.55
X8.5Y-3.65
X8.5Y-3.75
X10.25Y-2.125
X10.25Y-2.225
X10.25Y-2.325
X10.25Y-2.475
X10.25Y-2.575
X10.25Y-2.675
X10.25Y-2.825
X10.25Y-2.925
X10.25Y-3.025
X10.25Y-3.175
X10.25Y-3.275
X10.25Y-3.375
X10.25Y-3.525
X10.25Y-3.625
T0
M30
