G04 #@! TF.FileFunction,Soldermask,Top*
%FSLAX46Y46*%
G04 Gerber Fmt 4.6, Leading zero omitted, Abs format (unit mm)*
G04 Created by KiCad (PCBNEW 4.0.7) date Monday, May 28, 2018 'PMt' 10:03:33 PM*
%MOMM*%
%LPD*%
G01*
G04 APERTURE LIST*
%ADD10C,0.100000*%
%ADD11R,2.100000X2.100000*%
%ADD12O,2.100000X2.100000*%
%ADD13R,1.650000X1.900000*%
%ADD14R,1.900000X1.650000*%
%ADD15R,1.700000X1.900000*%
%ADD16R,1.350000X0.800000*%
%ADD17R,0.950000X0.700000*%
%ADD18R,0.700000X0.950000*%
%ADD19R,1.740000X0.440000*%
%ADD20R,2.000000X0.950000*%
%ADD21R,0.950000X2.000000*%
%ADD22R,1.150000X0.750000*%
%ADD23R,0.750000X1.150000*%
%ADD24R,1.350000X2.050000*%
%ADD25R,3.600000X2.050000*%
%ADD26R,1.200000X1.300000*%
G04 APERTURE END LIST*
D10*
D11*
X260350000Y-53975000D03*
D12*
X260350000Y-56515000D03*
X260350000Y-59055000D03*
D11*
X215900000Y-86360000D03*
D12*
X215900000Y-83820000D03*
X215900000Y-81280000D03*
D13*
X236220000Y-63480000D03*
X236220000Y-60980000D03*
D14*
X227310000Y-81280000D03*
X224810000Y-81280000D03*
X240685000Y-76835000D03*
X243185000Y-76835000D03*
D13*
X238760000Y-78760000D03*
X238760000Y-81260000D03*
D14*
X229215000Y-59055000D03*
X226715000Y-59055000D03*
D13*
X248285000Y-63480000D03*
X248285000Y-60980000D03*
D14*
X252710000Y-76835000D03*
X250210000Y-76835000D03*
D13*
X237490000Y-67965000D03*
X237490000Y-70465000D03*
X221615000Y-67330000D03*
X221615000Y-69830000D03*
D15*
X234950000Y-80725000D03*
X234950000Y-78025000D03*
X231775000Y-80725000D03*
X231775000Y-78025000D03*
D11*
X215900000Y-68580000D03*
D12*
X215900000Y-66040000D03*
X215900000Y-63500000D03*
D16*
X224960000Y-77455000D03*
X224960000Y-78105000D03*
X224960000Y-78755000D03*
X227160000Y-78755000D03*
X227160000Y-78105000D03*
X227160000Y-77455000D03*
X226865000Y-55230000D03*
X226865000Y-55880000D03*
X226865000Y-56530000D03*
X229065000Y-56530000D03*
X229065000Y-55880000D03*
X229065000Y-55230000D03*
D17*
X250260000Y-79010000D03*
X250260000Y-79510000D03*
X250260000Y-80010000D03*
X250260000Y-80510000D03*
X250260000Y-81010000D03*
D18*
X250960000Y-81210000D03*
X251460000Y-81210000D03*
X251960000Y-81210000D03*
D17*
X252660000Y-81010000D03*
X252660000Y-80510000D03*
X252660000Y-80010000D03*
X252660000Y-79510000D03*
X252660000Y-79010000D03*
D18*
X251960000Y-78810000D03*
X251460000Y-78810000D03*
X250960000Y-78810000D03*
D11*
X215900000Y-77470000D03*
D12*
X213360000Y-77470000D03*
X215900000Y-74930000D03*
X213360000Y-74930000D03*
X215900000Y-72390000D03*
X213360000Y-72390000D03*
D11*
X260350000Y-62865000D03*
D12*
X260350000Y-65405000D03*
X260350000Y-67945000D03*
D11*
X260350000Y-71755000D03*
D12*
X260350000Y-74295000D03*
X260350000Y-76835000D03*
D11*
X260350000Y-80645000D03*
D12*
X260350000Y-83185000D03*
X260350000Y-85725000D03*
D19*
X245370000Y-63915000D03*
X245370000Y-63265000D03*
X245370000Y-62615000D03*
X245370000Y-61965000D03*
X245370000Y-61315000D03*
X245370000Y-60665000D03*
X245370000Y-60015000D03*
X245370000Y-59365000D03*
X245370000Y-58715000D03*
X245370000Y-58065000D03*
X245370000Y-57415000D03*
X245370000Y-56765000D03*
X245370000Y-56115000D03*
X245370000Y-55465000D03*
X239770000Y-55465000D03*
X239770000Y-56115000D03*
X239770000Y-56765000D03*
X239770000Y-57415000D03*
X239770000Y-58065000D03*
X239770000Y-58715000D03*
X239770000Y-59365000D03*
X239770000Y-60015000D03*
X239770000Y-60665000D03*
X239770000Y-61315000D03*
X239770000Y-61965000D03*
X239770000Y-62615000D03*
X239770000Y-63265000D03*
X239770000Y-63915000D03*
D15*
X234950000Y-83740000D03*
X234950000Y-86440000D03*
X231775000Y-83740000D03*
X231775000Y-86440000D03*
X221615000Y-75010000D03*
X221615000Y-72310000D03*
X256540000Y-58975000D03*
X256540000Y-61675000D03*
X253365000Y-58975000D03*
X253365000Y-61675000D03*
D11*
X215900000Y-59055000D03*
D12*
X215900000Y-56515000D03*
X215900000Y-53975000D03*
D11*
X215900000Y-95250000D03*
D12*
X215900000Y-92710000D03*
X215900000Y-90170000D03*
D20*
X225620000Y-65780000D03*
X225620000Y-66580000D03*
X225620000Y-67380000D03*
X225620000Y-68180000D03*
X225620000Y-68980000D03*
X225620000Y-69780000D03*
X225620000Y-70580000D03*
X225620000Y-71380000D03*
D21*
X227070000Y-72830000D03*
X227870000Y-72830000D03*
X228670000Y-72830000D03*
X229470000Y-72830000D03*
X230270000Y-72830000D03*
X231070000Y-72830000D03*
X231870000Y-72830000D03*
X232670000Y-72830000D03*
D20*
X234120000Y-71380000D03*
X234120000Y-70580000D03*
X234120000Y-69780000D03*
X234120000Y-68980000D03*
X234120000Y-68180000D03*
X234120000Y-67380000D03*
X234120000Y-66580000D03*
X234120000Y-65780000D03*
D21*
X232670000Y-64330000D03*
X231870000Y-64330000D03*
X231070000Y-64330000D03*
X230270000Y-64330000D03*
X229470000Y-64330000D03*
X228670000Y-64330000D03*
X227870000Y-64330000D03*
X227070000Y-64330000D03*
D22*
X240710000Y-80010000D03*
X240710000Y-79510000D03*
X240710000Y-79010000D03*
X240710000Y-80510000D03*
X240710000Y-81010000D03*
D23*
X241935000Y-78785000D03*
X241435000Y-78785000D03*
X242435000Y-78785000D03*
D22*
X243160000Y-79010000D03*
X243160000Y-79510000D03*
X243160000Y-80010000D03*
X243160000Y-80510000D03*
X243160000Y-81010000D03*
D23*
X241435000Y-81235000D03*
X241935000Y-81235000D03*
X242435000Y-81235000D03*
D24*
X228360000Y-85065000D03*
X226060000Y-85065000D03*
X223760000Y-85065000D03*
D25*
X226060000Y-91465000D03*
D24*
X248680000Y-85700000D03*
X246380000Y-85700000D03*
X244080000Y-85700000D03*
D25*
X246380000Y-92100000D03*
D11*
X260350000Y-89535000D03*
D12*
X260350000Y-92075000D03*
D14*
X235565000Y-92075000D03*
X233065000Y-92075000D03*
D26*
X249240000Y-69580000D03*
X251140000Y-69580000D03*
X250190000Y-67580000D03*
X244795000Y-69580000D03*
X246695000Y-69580000D03*
X245745000Y-67580000D03*
M02*
